<?xml version="1.0" encoding="utf-8"?>
<!-- Generator: Adobe Illustrator 23.0.0, SVG Export Plug-In . SVG Version: 6.00 Build 0)  -->
<svg version="1.1" id="Layer_1" xmlns="http://www.w3.org/2000/svg" xmlns:xlink="http://www.w3.org/1999/xlink" x="0px" y="0px"
	 viewBox="0 0 936.9 277.4" style="enable-background:new 0 0 936.9 277.4;" xml:space="preserve">
<style type="text/css">
	.st0{fill:#783819;}
	.st1{fill:#FFFFFF;}
	.st2{font-family:'ClarendonBT-Bold';}
	.st3{font-size:178.4px;}
	.st4{fill:#D28729;}
	.st5{fill:#CB9866;}
	.st6{enable-background:new    ;}
	.st7{fill:#9C6237;}
	.st8{font-family:'CocoGothic-Bold';}
	.st9{font-size:28.69px;}
	.st10{letter-spacing:-1;}
</style>
<title>SVG_LOGO_HORIZONTALAsset 9</title>
<g>
	<g id="Layer_1-2">
		<g id="logo">
			<g id="Layer_1-2-2">
				<path class="st0" d="M201,204c-23.9,52.9-86.1,76.5-139.1,52.6s-76.5-86.1-52.6-139.1s86.1-76.5,139.1-52.6
					c21.8,9.8,39.7,26.9,50.5,48.2L156.6,131l-21.5,53.8L201,204z"/>
				<path class="st1" d="M163.8,161.2c-2.6,11.9-7.6,23.1-14.5,33.1c-0.8,0.9-1.9,1.5-3.1,1.5c-25.7,0.1-51.5,0.1-77.3,0
					c-1.1-0.1-2.1-0.6-2.8-1.4c-2-2.8-3.8-5.8-5.5-8.8c-0.7-1.6-2.3-2.5-4-2.4c-9.7-0.1-17.1-4.4-22.2-12.6
					c-6.1-9.8-1.6-20.6,9.3-23c1.7-0.4,4.3-0.2,5-1.3c0.8-1.3,0-3.6-0.2-5.4c-0.3-3.9-0.3-3.9,3.5-3.9h114.7
					C166.7,145.2,165.7,153.3,163.8,161.2z M52.9,166.5c-0.9-3.5-1.8-7.1-2.5-10.6c-0.3-1.7-1-2.1-2.6-1.8
					c-7.4,1.2-10.5,8.1-6.3,14.3c3.3,4.8,8.2,7,14.3,7.9C54.8,172.7,53.7,169.6,52.9,166.5L52.9,166.5z"/>
				<ellipse class="st1" cx="107.7" cy="137" rx="59" ry="26.9"/>
				<ellipse class="st0" cx="107.8" cy="132" rx="43.3" ry="14.8"/>
				<text transform="matrix(1 0 0 1 178.72 201.15)" class="st0 st2 st3">+</text>
				<path class="st4" d="M93.4,10.5c-1.5,1-2.9,2.2-4.2,3.4c-3.6,4.5-7.7,8.9-10.4,13.9c-3.8,7,0.7,13,4.4,18.6
					c4,6,8.9,11.4,12.6,17.5c3.2,5.3,6.1,11.1,7.5,17c1.8,7.3-0.3,15-5.4,20.4c-0.2,0.2-0.1,0.6-0.2,1c0.2,0,0.4,0.1,0.6,0
					c1.9-0.9,3.8-1.9,5.7-2.8c6.6-3.3,11.3-12,10.3-19.3c-1.3-9.6-6.4-17.2-12.1-24.7c-4.8-6.2-9.2-12.7-13-19.5
					c-4.6-8.3-1.7-16.1,3.8-23.1c0.4-0.6,0.8-1.3,1-2L93.4,10.5z M133,71.1c0.1-6.7-2.4-12.8-6-18.2c-4.6-6.8-10.4-12.7-15-19.5
					c-2.6-4-4.4-8.4-5.4-13c-1.7-7.4,2.3-13.4,6.5-19.1c0.2-0.3,0.2-0.9,0.2-1.3c-0.4,0.1-0.9,0-1.2,0.3c-3.8,3.7-7.7,7.2-11.1,11.3
					s-5.5,9.1-3.5,13.9c2.7,6.3,6.1,12.3,10.3,17.8c6.1,8.2,12.6,16.1,14.8,26.5c1.7,7.7-0.3,14.3-5,20.4c-0.3,0.5-0.6,1-0.8,1.5
					c0.5,0,1-0.1,1.5-0.3C127,88.2,133,79.9,133,71.1z"/>
				<path class="st5" d="M93.4,10.5c0.2,0.2,0.5,0.4,0.5,0.4c-0.3,0.7-0.6,1.4-1,2c-5.5,7-8.4,14.7-3.8,23.1
					c3.9,6.8,8.2,13.3,13,19.5c5.7,7.5,10.9,15.2,12.1,24.7c1,7.3-3.7,16-10.3,19.3c-1.9,0.9-3.8,1.9-5.7,2.8c-0.2,0.1-0.4,0-0.6,0
					c0.1-0.3,0-0.8,0.2-1c5.2-5.4,7.2-13.1,5.4-20.4c-1.4-5.9-4.3-11.7-7.5-17c-3.7-6.2-8.6-11.5-12.6-17.5
					c-3.7-5.6-8.1-11.6-4.4-18.5c2.7-5,6.8-9.4,10.4-13.9C90.2,12.5,91.9,11.6,93.4,10.5z"/>
				<path class="st5" d="M133,71.1c0,8.9-6,17.2-14.7,20.4c-0.5,0.1-1,0.2-1.6,0.3c0.2-0.5,0.5-1,0.8-1.5c4.7-6.1,6.7-12.7,5-20.4
					c-2.2-10.5-8.7-18.3-14.8-26.6c-4.2-5.5-7.6-11.5-10.3-17.9c-2-4.8,0.3-9.9,3.5-13.9s7.4-7.6,11.1-11.3c0.2-0.2,0.8-0.2,1.2-0.3
					c-0.1,0.4,0,1-0.3,1.3c-4.2,5.7-8.2,11.7-6.5,19.1c1,4.6,2.9,9,5.5,13c4.6,6.8,10.4,12.7,15,19.5
					C130.6,58.2,133.1,64.3,133,71.1z"/>
				<text transform="matrix(1 0 0 1 294.24 201.15)" class="st5 st2 st3">+</text>
				<path class="st1" d="M166.7,137c0,0-3.3,74.3-37.7,81.4s-48.7-7.3-48.7-7.3L166.7,137z"/>
				<path class="st1" d="M55.8,176.4c0,0,9.3,48.5,59,43.9V190L83,186c0,0-15.4-5.8-17.2-7.3S55.8,176.4,55.8,176.4z"/>
			</g>
		</g>
		<g class="st6">
			<path class="st0" d="M533.2,120.7c1.4-1,2.5-1,3.3,0l5.1,8.7c0.5,0.6,0.8,1.1,0.6,1.6c-0.1,0.4-0.5,0.9-1.1,1.4
				c-2.9,2.2-6.2,3.9-9.8,5.2c-3.6,1.3-7.7,1.9-12.4,1.9c-5.4,0-10.5-1-15.3-3.1c-4.8-2-9-4.8-12.5-8.4c-3.6-3.5-6.4-7.7-8.4-12.5
				c-2-4.8-3.1-9.9-3.1-15.3c0-5.5,1-10.5,3.1-15.3c2-4.7,4.9-8.8,8.4-12.4c3.6-3.5,7.8-6.3,12.5-8.3c4.8-2,9.9-3,15.3-3
				c4.6,0,8.8,0.6,12.4,1.9c3.6,1.3,6.9,3,9.9,5.2c0.5,0.5,0.8,1,0.8,1.4c0,0.5-0.1,0.9-0.2,1.1l-5.4,9.2c-0.6,0.8-1.6,0.9-2.9,0.1
				c-2.4-1.5-4.7-2.7-7-3.5c-2.3-0.8-4.8-1.2-7.6-1.2c-3.5,0-6.7,0.6-9.6,1.9c-2.9,1.3-5.5,3-7.6,5.3c-2.2,2.3-3.8,4.9-5.1,7.9
				c-1.2,3-1.8,6.2-1.8,9.7c0,3.5,0.6,6.7,1.8,9.8c1.2,3,2.9,5.7,5.1,8c2.1,2.3,4.7,4.1,7.6,5.4c2.9,1.3,6.1,2,9.6,2
				c2.8,0,5.4-0.5,7.9-1.4C529.3,123.2,531.4,122.1,533.2,120.7z"/>
			<path class="st0" d="M550.3,113.5c0-3.6,0.7-7,2-10.2c1.4-3.2,3.3-6,5.7-8.4c2.4-2.4,5.2-4.3,8.4-5.6c3.2-1.4,6.7-2,10.3-2
				c3.7,0,7.1,0.7,10.3,2c3.2,1.4,6,3.2,8.4,5.6c2.4,2.4,4.3,5.2,5.7,8.4c1.4,3.2,2.1,6.6,2.1,10.2c0,3.6-0.7,7-2.1,10.2
				c-1.4,3.2-3.3,5.9-5.7,8.3c-2.4,2.4-5.2,4.2-8.4,5.6c-3.2,1.4-6.7,2-10.3,2c-3.7,0-7.1-0.7-10.3-2c-3.2-1.4-6-3.2-8.4-5.6
				c-2.4-2.4-4.3-5.1-5.7-8.3C551,120.5,550.3,117.1,550.3,113.5z M563.9,113.6c0,1.8,0.3,3.6,1,5.2c0.6,1.6,1.6,3,2.7,4.2
				c1.2,1.2,2.5,2.2,4.1,2.9c1.6,0.7,3.3,1,5.1,1s3.5-0.3,5.1-1c1.6-0.7,2.9-1.6,4.1-2.9c1.2-1.2,2.1-2.6,2.8-4.2
				c0.7-1.6,1-3.3,1-5.2s-0.3-3.6-1-5.2c-0.7-1.6-1.6-3-2.8-4.2c-1.2-1.2-2.5-2.2-4.1-2.9c-1.6-0.7-3.3-1.1-5.1-1.1
				s-3.5,0.4-5.1,1.1c-1.6,0.7-2.9,1.7-4.1,2.9c-1.2,1.2-2.1,2.6-2.7,4.2C564.2,110,563.9,111.7,563.9,113.6z"/>
			<path class="st0" d="M647.6,88.1v-8.8c0-2.8,0.5-5.3,1.5-7.5c1-2.2,2.4-4,4.2-5.5c1.8-1.5,3.8-2.6,6.2-3.4
				c2.4-0.8,4.9-1.2,7.6-1.2c1.9,0,2.9,1,2.9,2.9v7.1c0,0.8-0.2,1.4-0.5,1.7c-0.3,0.3-0.8,0.6-1.3,0.7c-0.5,0.1-1,0.2-1.6,0.3
				c-0.5,0.1-1,0.2-1.4,0.5c-1.2,0.3-2.2,1-3,1.8c-0.8,0.9-1.2,2.2-1.2,3.9v7.4h5.3c0.8,0,1.5,0.2,2,0.7c0.5,0.5,0.8,1.2,0.8,2.1
				v5.3c0,0.9-0.3,1.6-0.8,2.2c-0.5,0.5-1.2,0.8-2,0.8h-5.3v36.6c0,0.8-0.3,1.5-0.8,1.9c-0.5,0.4-1.2,0.7-1.8,0.7h-8.1
				c-0.8,0-1.4-0.2-1.9-0.7c-0.5-0.5-0.8-1.1-0.8-1.8V99.2h-4.4h-13.9v36.6c0,0.8-0.3,1.5-0.8,1.9c-0.5,0.4-1.2,0.7-1.9,0.7h-8
				c-0.8,0-1.4-0.2-1.9-0.7c-0.5-0.5-0.8-1.1-0.8-1.8V99.2h-4c-1.8,0-2.8-1-2.8-3V91c0-1.9,0.9-2.9,2.8-2.9h4v-8.8
				c0-2.8,0.5-5.3,1.5-7.5c1-2.2,2.4-4,4.2-5.5c1.8-1.5,3.8-2.6,6.2-3.4c2.4-0.8,4.9-1.2,7.6-1.2c1.8,0,2.8,1,2.8,2.9v7.1
				c0,0.8-0.2,1.4-0.6,1.9c-0.4,0.5-0.9,0.8-1.7,0.8c-2,0-3.6,0.5-4.8,1.5c-1.2,1-1.8,2.6-1.8,4.8v7.3H643H647.6z"/>
			<path class="st0" d="M700,127.5c1.5,0.1,3-0.1,4.4-0.6c1.4-0.5,2.8-1.1,4.2-1.8c0.5-0.3,1.1-0.6,1.5-0.9c0.5-0.3,0.9-0.5,1.3-0.5
				c0.6,0,1.1,0.3,1.5,0.9l3.8,6c0.3,0.5,0.5,1,0.5,1.3c0,0.5-0.2,1-0.5,1.4c-0.3,0.4-0.7,0.7-1.1,1.1c-2.2,1.6-4.6,2.9-7.1,3.9
				c-2.6,1-5.3,1.4-8.2,1.4c-3.5,0-6.9-0.7-10.1-2c-3.2-1.4-5.9-3.2-8.3-5.6s-4.2-5.1-5.6-8.3c-1.4-3.2-2.1-6.6-2.1-10.2
				c0-3.5,0.7-6.9,2-10.1c1.4-3.2,3.2-6,5.5-8.4c2.3-2.4,5-4.3,8.1-5.7c3.1-1.4,6.3-2.1,9.8-2.1c3.3,0,6.4,0.6,9.3,1.8
				c2.9,1.2,5.5,2.9,7.7,5c2.2,2.1,4,4.6,5.2,7.4c1.3,2.8,1.9,5.9,1.9,9.1c0,2.7-0.2,4.6-0.7,5.8c-0.4,1.2-1.4,1.8-2.9,1.8h-31.8
				c0.1,1.5,0.6,2.8,1.3,4c0.8,1.2,1.7,2.1,2.8,3c1.1,0.8,2.3,1.4,3.6,1.8C697.4,127.3,698.7,127.5,700,127.5z M688.4,108.1h22
				c-0.1-2.6-1.2-4.8-3.3-6.6c-2.1-1.8-4.7-2.7-7.7-2.7c-1.2,0-2.5,0.2-3.7,0.7s-2.4,1.1-3.4,2c-1,0.8-1.9,1.8-2.6,3
				C689,105.7,688.6,106.9,688.4,108.1z"/>
			<path class="st0" d="M758.5,127.5c1.5,0.1,3-0.1,4.4-0.6c1.4-0.5,2.8-1.1,4.2-1.8c0.5-0.3,1.1-0.6,1.5-0.9
				c0.5-0.3,0.9-0.5,1.3-0.5c0.6,0,1.1,0.3,1.5,0.9l3.8,6c0.3,0.5,0.5,1,0.5,1.3c0,0.5-0.2,1-0.5,1.4c-0.3,0.4-0.7,0.7-1.1,1.1
				c-2.2,1.6-4.6,2.9-7.1,3.9c-2.6,1-5.3,1.4-8.2,1.4c-3.5,0-6.9-0.7-10.1-2c-3.2-1.4-5.9-3.2-8.3-5.6s-4.2-5.1-5.6-8.3
				c-1.4-3.2-2.1-6.6-2.1-10.2c0-3.5,0.7-6.9,2-10.1c1.4-3.2,3.2-6,5.5-8.4c2.3-2.4,5-4.3,8.1-5.7c3.1-1.4,6.3-2.1,9.8-2.1
				c3.3,0,6.4,0.6,9.3,1.8c2.9,1.2,5.5,2.9,7.7,5c2.2,2.1,4,4.6,5.2,7.4c1.3,2.8,1.9,5.9,1.9,9.1c0,2.7-0.2,4.6-0.7,5.8
				c-0.4,1.2-1.4,1.8-2.9,1.8h-31.8c0.1,1.5,0.6,2.8,1.3,4c0.8,1.2,1.7,2.1,2.8,3c1.1,0.8,2.3,1.4,3.6,1.8
				C756,127.3,757.3,127.5,758.5,127.5z M746.9,108.1h22c-0.1-2.6-1.2-4.8-3.3-6.6c-2.1-1.8-4.7-2.7-7.7-2.7c-1.2,0-2.5,0.2-3.7,0.7
				s-2.4,1.1-3.4,2c-1,0.8-1.9,1.8-2.6,3C747.6,105.7,747.1,106.9,746.9,108.1z"/>
		</g>
		<g class="st6">
			<path class="st7" d="M482.9,224.6v-68.5c0-1.3,0.6-2,1.9-2h28.4c3.3,0,6.3,0.7,9.1,2c2.7,1.3,5.1,3,7.1,5.2
				c2,2.2,3.6,4.7,4.7,7.5c1.1,2.8,1.7,5.7,1.7,8.7c0,3-0.6,5.9-1.7,8.6c-1.1,2.8-2.7,5.2-4.7,7.4c-2,2.1-4.4,3.9-7.2,5.1
				c-2.8,1.3-5.8,1.9-9.1,1.9h-15.9v24.1c0,1.3-0.7,2-2,2h-10.3C483.6,226.6,482.9,225.9,482.9,224.6z M510.4,166.6h-13.3v21.6h13.3
				c3.3,0,5.9-1,7.9-3.1c2-2,3-4.6,3-7.7c0-1.5-0.3-2.9-0.8-4.2c-0.5-1.3-1.3-2.5-2.2-3.5c-1-1-2.1-1.8-3.5-2.3
				C513.5,166.9,512,166.6,510.4,166.6z"/>
			<path class="st7" d="M543.7,224.4v-68.1c0-1.4,0.7-2.1,2-2.1h9.1c1.4,0,2.1,0.7,2.1,2.1v68.1c0,1.4-0.7,2.1-2.1,2.1h-9.1
				C544.4,226.6,543.7,225.9,543.7,224.4z"/>
			<path class="st7" d="M608.1,226.6c-1,0-1.7-0.1-2.2-0.4c-0.5-0.3-0.9-0.7-1.2-1.2c-0.3-0.5-0.5-1.1-0.6-1.9
				c-0.2-0.7-0.3-1.5-0.5-2.3c-1.5,1.7-3.6,3.2-6.4,4.5c-2.8,1.3-5.7,2-8.9,2c-3,0-5.6-0.5-7.9-1.4c-2.3-0.9-4.2-2.3-5.8-4
				c-1.6-1.7-2.7-3.8-3.5-6.1c-0.8-2.3-1.2-4.9-1.2-7.7v-26.3c0-0.9,0.3-1.6,0.8-2.1c0.6-0.5,1.2-0.8,2-0.8h8c1,0,1.8,0.2,2.1,0.7
				c0.4,0.5,0.6,1.2,0.6,2.1v24.2c0,2.7,0.8,4.8,2.3,6.3c1.5,1.6,3.6,2.3,6.1,2.3c1,0,2.2-0.2,3.5-0.6c1.3-0.4,2.5-1,3.6-1.7
				c1.1-0.7,2-1.6,2.8-2.6s1.2-2.2,1.2-3.4v-24.6c0-1.8,0.9-2.7,2.8-2.7h7.9c0.9,0,1.6,0.3,2.1,0.8c0.5,0.5,0.7,1.2,0.7,2v42.2
				c0,2-1,2.9-3,2.9H608.1z"/>
			<path class="st7" d="M621.6,218.3c-0.1-0.2-0.2-0.5-0.2-1c0-0.2,0-0.4,0.1-0.7c0.1-0.3,0.3-0.5,0.6-0.7l5.9-4.8
				c0.2-0.3,0.6-0.5,1.1-0.5c0.4,0,0.9,0.2,1.6,0.7c1.2,1,2.6,2.2,4.2,3.4c1.6,1.2,3.3,1.9,5.4,1.9c2.2,0,3.7-0.5,4.5-1.4
				c0.8-0.9,1.2-2,1.2-3.3c0-0.7-0.3-1.3-0.9-1.9c-0.6-0.6-1.3-1.1-2-1.5c-0.8-0.5-1.6-0.8-2.4-1.1c-0.8-0.3-1.5-0.5-2-0.6
				c-5.7-1.5-9.8-3.4-12.3-5.8c-2.5-2.4-3.8-5.5-3.8-9.3c0-1.9,0.4-3.7,1.3-5.3c0.9-1.7,2.1-3.1,3.7-4.4c1.6-1.3,3.5-2.3,5.8-3
				c2.2-0.7,4.7-1.1,7.5-1.1c3.3,0,6.2,0.5,8.8,1.6c2.6,1.1,4.9,2.5,6.8,4.2c1.2,1.2,1.8,2.1,1.8,2.9c0,0.3-0.4,0.7-1.1,1.5
				c-0.7,0.7-1.5,1.4-2.4,2.1c-0.9,0.7-1.7,1.3-2.5,1.9c-0.8,0.6-1.4,0.8-1.6,0.8c-0.5,0-1.1-0.3-1.7-0.9c-0.9-0.8-2-1.5-3.2-2.3
				c-1.2-0.7-2.8-1.1-4.7-1.1c-1.2,0-2.4,0.2-3.5,0.7c-1.1,0.5-1.6,1.3-1.6,2.5c0,1.2,0.7,2.1,2,2.8c1.3,0.7,3.2,1.4,5.5,2.1
				c2.5,0.8,4.7,1.7,6.8,2.7c2,0.9,3.8,2,5.2,3.3c1.4,1.2,2.5,2.7,3.3,4.2c0.8,1.6,1.2,3.5,1.2,5.6c0,2.5-0.5,4.7-1.6,6.6
				c-1.1,1.9-2.5,3.5-4.3,4.8c-1.8,1.3-3.9,2.2-6.3,2.9c-2.4,0.6-4.8,1-7.4,1c-3.4,0-6.7-0.6-9.7-1.9s-5.5-3-7.6-5.3
				C622.4,219.8,621.9,219,621.6,218.3z"/>
			<path class="st7" d="M673.1,192.8h31.8c0.7,0,1.3,0.2,1.9,0.7c0.5,0.5,0.8,1.1,0.8,1.8v6.9c0,0.6-0.2,1.3-0.7,1.8
				c-0.5,0.6-1.1,0.9-1.9,0.9h-31.8c-1.7,0-2.5-0.9-2.5-2.7v-6.9C670.6,193.7,671.4,192.8,673.1,192.8z"/>
			<path class="st7" d="M721.1,224.6v-68.5c0-1.3,0.6-2,1.9-2h28.4c3.3,0,6.3,0.7,9.1,2c2.7,1.3,5.1,3,7.1,5.2
				c2,2.2,3.6,4.7,4.7,7.5c1.1,2.8,1.7,5.7,1.7,8.7c0,3-0.6,5.9-1.7,8.6c-1.1,2.8-2.7,5.2-4.7,7.4c-2,2.1-4.4,3.9-7.2,5.1
				c-2.8,1.3-5.8,1.9-9.1,1.9h-15.9v24.1c0,1.3-0.7,2-2,2h-10.3C721.7,226.6,721.1,225.9,721.1,224.6z M748.5,166.6h-13.3v21.6h13.3
				c3.3,0,5.9-1,7.9-3.1c2-2,3-4.6,3-7.7c0-1.5-0.3-2.9-0.8-4.2c-0.5-1.3-1.3-2.5-2.2-3.5c-1-1-2.1-1.8-3.5-2.3
				C751.6,166.9,750.1,166.6,748.5,166.6z"/>
			<path class="st7" d="M781.8,224.4v-68.1c0-1.4,0.7-2.1,2-2.1h9.1c1.4,0,2.1,0.7,2.1,2.1v68.1c0,1.4-0.7,2.1-2.1,2.1h-9.1
				C782.5,226.6,781.8,225.9,781.8,224.4z"/>
			<path class="st7" d="M846.2,226.6c-1,0-1.7-0.1-2.2-0.4c-0.5-0.3-0.9-0.7-1.2-1.2c-0.3-0.5-0.5-1.1-0.6-1.9
				c-0.2-0.7-0.3-1.5-0.5-2.3c-1.5,1.7-3.6,3.2-6.4,4.5c-2.8,1.3-5.7,2-8.9,2c-3,0-5.6-0.5-7.9-1.4c-2.3-0.9-4.2-2.3-5.8-4
				c-1.6-1.7-2.7-3.8-3.5-6.1c-0.8-2.3-1.2-4.9-1.2-7.7v-26.3c0-0.9,0.3-1.6,0.8-2.1c0.6-0.5,1.2-0.8,2-0.8h8c1,0,1.8,0.2,2.1,0.7
				c0.4,0.5,0.6,1.2,0.6,2.1v24.2c0,2.7,0.8,4.8,2.3,6.3c1.5,1.6,3.6,2.3,6.1,2.3c1,0,2.2-0.2,3.5-0.6c1.3-0.4,2.5-1,3.6-1.7
				c1.1-0.7,2-1.6,2.8-2.6s1.2-2.2,1.2-3.4v-24.6c0-1.8,0.9-2.7,2.8-2.7h7.9c0.9,0,1.6,0.3,2.1,0.8c0.5,0.5,0.7,1.2,0.7,2v42.2
				c0,2-1,2.9-3,2.9H846.2z"/>
			<path class="st7" d="M859.8,218.3c-0.1-0.2-0.2-0.5-0.2-1c0-0.2,0-0.4,0.1-0.7c0.1-0.3,0.3-0.5,0.6-0.7l5.9-4.8
				c0.2-0.3,0.6-0.5,1.1-0.5c0.4,0,0.9,0.2,1.6,0.7c1.2,1,2.6,2.2,4.2,3.4c1.6,1.2,3.3,1.9,5.4,1.9c2.2,0,3.7-0.5,4.5-1.4
				c0.8-0.9,1.2-2,1.2-3.3c0-0.7-0.3-1.3-0.9-1.9c-0.6-0.6-1.3-1.1-2-1.5c-0.8-0.5-1.6-0.8-2.4-1.1c-0.8-0.3-1.5-0.5-2-0.6
				c-5.7-1.5-9.8-3.4-12.3-5.8c-2.5-2.4-3.8-5.5-3.8-9.3c0-1.9,0.4-3.7,1.3-5.3c0.9-1.7,2.1-3.1,3.7-4.4c1.6-1.3,3.5-2.3,5.8-3
				c2.2-0.7,4.7-1.1,7.5-1.1c3.3,0,6.2,0.5,8.8,1.6c2.6,1.1,4.9,2.5,6.8,4.2c1.2,1.2,1.8,2.1,1.8,2.9c0,0.3-0.4,0.7-1.1,1.5
				c-0.7,0.7-1.5,1.4-2.4,2.1c-0.9,0.7-1.7,1.3-2.5,1.9c-0.8,0.6-1.4,0.8-1.6,0.8c-0.5,0-1.1-0.3-1.7-0.9c-0.9-0.8-2-1.5-3.2-2.3
				c-1.2-0.7-2.8-1.1-4.7-1.1c-1.2,0-2.4,0.2-3.5,0.7c-1.1,0.5-1.6,1.3-1.6,2.5c0,1.2,0.7,2.1,2,2.8c1.3,0.7,3.2,1.4,5.5,2.1
				c2.5,0.8,4.7,1.7,6.8,2.7c2,0.9,3.8,2,5.2,3.3c1.4,1.2,2.5,2.7,3.3,4.2c0.8,1.6,1.2,3.5,1.2,5.6c0,2.5-0.5,4.7-1.6,6.6
				c-1.1,1.9-2.5,3.5-4.3,4.8c-1.8,1.3-3.9,2.2-6.3,2.9c-2.4,0.6-4.8,1-7.4,1c-3.4,0-6.7-0.6-9.7-1.9s-5.5-3-7.6-5.3
				C860.5,219.8,860,219,859.8,218.3z"/>
		</g>
		<g class="st6">
			<path class="st0" d="M488.2,249.2c0,0.6-0.2,1.1-0.6,1.5c-0.4,0.4-0.9,0.6-1.5,0.6c-0.6,0-1.1-0.2-1.5-0.6s-0.6-1-0.6-1.7
				c0-0.7,0.1-1.4,0.2-1.9c0.2-0.5,0.3-1,0.5-1.3c0.2-0.4,0.4-0.6,0.6-0.8c0.2-0.2,0.4-0.3,0.5-0.3c0.2,0,0.3,0,0.4,0.1l0.6,0.5
				c0.1,0.1,0.1,0.2,0.1,0.3c0,0.2,0,0.3-0.1,0.3l-0.1,0.3c-0.1,0.1-0.1,0.2-0.2,0.3c-0.1,0.1-0.1,0.3-0.1,0.5
				c0.5,0.1,0.9,0.3,1.2,0.7C488,248.3,488.2,248.7,488.2,249.2z M494.2,249.2c0,0.6-0.2,1.1-0.6,1.5c-0.4,0.4-0.9,0.6-1.5,0.6
				c-0.6,0-1.1-0.2-1.5-0.6s-0.6-1-0.6-1.7c0-0.7,0.1-1.4,0.2-1.9c0.2-0.5,0.3-1,0.5-1.3c0.2-0.4,0.4-0.6,0.6-0.8
				c0.2-0.2,0.4-0.3,0.5-0.3c0.2,0,0.3,0,0.4,0.1l0.6,0.5c0.1,0.1,0.1,0.2,0.1,0.3c0,0.2,0,0.3-0.1,0.3l-0.1,0.3
				c-0.1,0.1-0.1,0.2-0.2,0.3c-0.1,0.1-0.1,0.3-0.1,0.5c0.5,0.1,0.9,0.3,1.2,0.7C494,248.3,494.2,248.7,494.2,249.2z"/>
			<path class="st0" d="M497.7,265.8v-20.1c0-0.4,0.2-0.6,0.6-0.6h3.1c0.4,0,0.5,0.2,0.5,0.6v20.1c0,0.4-0.2,0.6-0.5,0.6h-3.1
				C497.8,266.3,497.7,266.1,497.7,265.8z"/>
			<path class="st0" d="M508.9,252.3c0.3,0,0.5,0,0.6,0.1c0.1,0.1,0.3,0.2,0.3,0.4c0.1,0.2,0.1,0.4,0.2,0.6c0,0.2,0.1,0.5,0.1,0.7
				c0.4-0.5,1-1,1.8-1.4c0.7-0.4,1.6-0.6,2.5-0.6c0.9,0,1.7,0.1,2.4,0.4c0.7,0.3,1.3,0.7,1.8,1.2c0.5,0.5,0.8,1.1,1.1,1.8
				s0.4,1.5,0.4,2.3v7.9c0,0.3-0.1,0.4-0.2,0.5s-0.3,0.1-0.5,0.1h-2.6c-0.3,0-0.5,0-0.6-0.1c-0.1-0.1-0.1-0.3-0.1-0.5v-7.3
				c0-0.8-0.2-1.4-0.7-1.9c-0.5-0.5-1.1-0.7-1.9-0.7c-0.3,0-0.6,0.1-1,0.2s-0.6,0.3-0.9,0.5s-0.5,0.5-0.7,0.8
				c-0.2,0.3-0.3,0.6-0.4,1v7.4c0,0.2,0,0.4-0.1,0.5c-0.1,0.1-0.3,0.1-0.6,0.1h-2.6c-0.3,0-0.5,0-0.6-0.1c-0.1-0.1-0.1-0.3-0.1-0.5
				v-12.6c0-0.6,0.3-0.9,0.9-0.9H508.9z"/>
			<path class="st0" d="M530.6,263.1c0.6,0,1.1-0.1,1.5-0.3s0.9-0.3,1.3-0.5c0.2-0.1,0.3-0.1,0.4-0.1c0.1,0,0.3,0.1,0.4,0.3l1.2,1.8
				c0.1,0.2,0.1,0.3,0.1,0.3c0,0.2-0.1,0.3-0.2,0.4c-0.1,0.1-0.2,0.2-0.3,0.3c-0.6,0.4-1.3,0.8-2.1,1c-0.7,0.3-1.5,0.4-2.4,0.4
				c-1,0-2-0.2-2.9-0.6c-0.9-0.4-1.7-0.9-2.3-1.6c-0.7-0.7-1.2-1.4-1.6-2.3s-0.6-1.8-0.6-2.9s0.2-2,0.6-2.9s0.9-1.7,1.6-2.4
				s1.4-1.2,2.3-1.6c0.9-0.4,1.8-0.6,2.9-0.6c0.8,0,1.5,0.1,2.2,0.4c0.7,0.2,1.4,0.6,2.1,1h0c0.2,0.1,0.3,0.2,0.4,0.3
				c0.1,0.1,0.1,0.2,0.1,0.4c0,0,0,0.1,0,0.2c0,0.1,0,0.1-0.1,0.2l-1.1,1.9c0,0.1-0.1,0.1-0.2,0.2c-0.1,0.1-0.2,0.1-0.3,0.1
				c-0.1,0-0.2-0.1-0.5-0.2c-0.3-0.3-0.7-0.5-1.2-0.6c-0.5-0.2-0.9-0.2-1.4-0.2c-0.5,0-1,0.1-1.5,0.3s-0.9,0.5-1.2,0.8
				c-0.3,0.4-0.6,0.8-0.8,1.2s-0.3,1-0.3,1.5c0,1.1,0.3,2,1,2.7C528.7,262.8,529.5,263.1,530.6,263.1z"/>
		</g>
		<g class="st6">
			<path class="st0" d="M542.3,253.1c0,0.1,0.1,0.3,0.1,0.6c0.1,0.3,0.1,0.5,0.1,0.6c0.2-0.2,0.4-0.5,0.6-0.7
				c0.2-0.2,0.5-0.5,0.8-0.7c0.3-0.2,0.6-0.4,1-0.5c0.4-0.1,0.7-0.2,1.2-0.2c0.1,0,0.2,0,0.3,0s0.2,0,0.3,0c0.3,0,0.6,0.1,0.9,0.2
				c0.3,0.1,0.7,0.3,1,0.4c0.3,0.2,0.6,0.3,0.8,0.5c0.2,0.2,0.3,0.3,0.3,0.5c0,0.1,0,0.2-0.1,0.4l-1.1,1.9c-0.2,0.3-0.4,0.4-0.6,0.4
				c-0.1,0-0.2,0-0.3-0.1c-0.2-0.1-0.3-0.1-0.5-0.2c-0.3-0.2-0.5-0.3-0.7-0.4c-0.2-0.1-0.4-0.1-0.7-0.1c-0.4,0-0.8,0.1-1.1,0.2
				c-0.3,0.2-0.6,0.4-0.8,0.6s-0.4,0.6-0.5,0.9c-0.1,0.3-0.2,0.7-0.2,1v7.3c0,0.5-0.3,0.7-0.8,0.7h-2.4c-0.5,0-0.7-0.2-0.7-0.7
				v-12.6c0-0.2,0.1-0.4,0.2-0.6c0.2-0.1,0.3-0.2,0.5-0.2h1.8c0.2,0,0.4,0.1,0.5,0.2C542.1,252.7,542.2,252.9,542.3,253.1z"/>
		</g>
		<g class="st6">
			<path class="st0" d="M557.8,263.3c0.4,0,0.8,0,1.2-0.2c0.4-0.1,0.8-0.3,1.2-0.5c0.2-0.1,0.3-0.2,0.4-0.3s0.3-0.1,0.4-0.1
				c0.2,0,0.3,0.1,0.4,0.3l1.1,1.7c0.1,0.2,0.1,0.3,0.1,0.4c0,0.2,0,0.3-0.1,0.4c-0.1,0.1-0.2,0.2-0.3,0.3c-0.6,0.5-1.3,0.8-2,1.1
				c-0.7,0.3-1.5,0.4-2.3,0.4c-1,0-1.9-0.2-2.8-0.6c-0.9-0.4-1.7-0.9-2.3-1.6s-1.2-1.4-1.6-2.3c-0.4-0.9-0.6-1.9-0.6-2.9
				c0-1,0.2-1.9,0.6-2.8s0.9-1.7,1.5-2.4s1.4-1.2,2.3-1.6c0.9-0.4,1.8-0.6,2.8-0.6c0.9,0,1.8,0.2,2.6,0.5c0.8,0.3,1.5,0.8,2.2,1.4
				c0.6,0.6,1.1,1.3,1.5,2.1c0.4,0.8,0.5,1.6,0.5,2.5c0,0.7-0.1,1.3-0.2,1.6c-0.1,0.3-0.4,0.5-0.8,0.5h-8.9c0,0.4,0.2,0.8,0.4,1.1
				c0.2,0.3,0.5,0.6,0.8,0.8c0.3,0.2,0.6,0.4,1,0.5C557,263.2,557.4,263.3,557.8,263.3z M554.5,257.8h6.2c0-0.7-0.3-1.3-0.9-1.8
				c-0.6-0.5-1.3-0.8-2.2-0.8c-0.3,0-0.7,0.1-1,0.2c-0.3,0.1-0.7,0.3-0.9,0.6c-0.3,0.2-0.5,0.5-0.7,0.8S554.6,257.5,554.5,257.8z"/>
			<path class="st0" d="M568.6,252.3h1.9c0.2,0,0.3,0.1,0.4,0.2c0.1,0.1,0.2,0.3,0.3,0.5s0.1,0.4,0.2,0.6s0.1,0.4,0.1,0.6
				c0.4-0.5,0.9-0.9,1.6-1.3c0.7-0.4,1.4-0.6,2.4-0.6c1,0,1.8,0.2,2.6,0.6c0.7,0.4,1.3,1,1.7,1.6c0.5-0.7,1.1-1.2,1.9-1.7
				c0.8-0.4,1.6-0.6,2.5-0.6c1,0,1.8,0.2,2.5,0.5c0.7,0.3,1.2,0.7,1.7,1.3c0.4,0.5,0.8,1.2,1,1.9c0.2,0.7,0.3,1.5,0.4,2.3v1.3v6.3
				c0,0.3-0.1,0.4-0.2,0.5c-0.2,0.1-0.4,0.1-0.6,0.1h-2.2c-0.3,0-0.5,0-0.7-0.1s-0.2-0.3-0.2-0.5v-7.3c0-0.7-0.2-1.3-0.5-1.8
				c-0.3-0.5-0.8-0.7-1.5-0.7c-0.3,0-0.7,0.1-1,0.2c-0.3,0.1-0.6,0.3-0.9,0.5s-0.5,0.5-0.7,0.8c-0.2,0.3-0.3,0.6-0.3,1v7.3
				c0,0.3-0.1,0.4-0.2,0.5s-0.4,0.1-0.6,0.1h-2.4c-0.3,0-0.5,0-0.6-0.1c-0.1-0.1-0.2-0.3-0.2-0.5v-7.4c0-0.8-0.2-1.4-0.6-1.8
				c-0.4-0.4-0.9-0.6-1.6-0.6c-0.3,0-0.7,0.1-1,0.2c-0.3,0.1-0.6,0.3-0.9,0.5c-0.3,0.2-0.5,0.5-0.6,0.8c-0.2,0.3-0.2,0.6-0.2,1v7.4
				c0,0.4-0.2,0.6-0.7,0.6h-2.5c-0.5,0-0.8-0.2-0.8-0.6v-12.6c0-0.3,0.1-0.5,0.3-0.6S568.4,252.3,568.6,252.3z"/>
			<path class="st0" d="M599.2,263.3c0.4,0,0.8,0,1.2-0.2s0.8-0.3,1.2-0.5c0.2-0.1,0.3-0.2,0.4-0.3s0.3-0.1,0.4-0.1
				c0.2,0,0.3,0.1,0.4,0.3l1.1,1.7c0.1,0.2,0.1,0.3,0.1,0.4c0,0.2,0,0.3-0.1,0.4c-0.1,0.1-0.2,0.2-0.3,0.3c-0.6,0.5-1.3,0.8-2,1.1
				c-0.7,0.3-1.5,0.4-2.3,0.4c-1,0-1.9-0.2-2.8-0.6s-1.7-0.9-2.3-1.6c-0.7-0.7-1.2-1.4-1.6-2.3c-0.4-0.9-0.6-1.9-0.6-2.9
				c0-1,0.2-1.9,0.6-2.8s0.9-1.7,1.5-2.4s1.4-1.2,2.3-1.6c0.9-0.4,1.8-0.6,2.8-0.6c0.9,0,1.8,0.2,2.6,0.5c0.8,0.3,1.5,0.8,2.2,1.4
				s1.1,1.3,1.5,2.1c0.4,0.8,0.5,1.6,0.5,2.5c0,0.7-0.1,1.3-0.2,1.6c-0.1,0.3-0.4,0.5-0.8,0.5H596c0,0.4,0.2,0.8,0.4,1.1
				c0.2,0.3,0.5,0.6,0.8,0.8s0.6,0.4,1,0.5C598.5,263.2,598.9,263.3,599.2,263.3z M596,257.8h6.2c0-0.7-0.3-1.3-0.9-1.8
				c-0.6-0.5-1.3-0.8-2.2-0.8c-0.3,0-0.7,0.1-1,0.2c-0.3,0.1-0.7,0.3-0.9,0.6c-0.3,0.2-0.5,0.5-0.7,0.8
				C596.1,257.1,596,257.5,596,257.8z"/>
			<path class="st0" d="M611.9,252.3c0.3,0,0.5,0,0.6,0.1s0.3,0.2,0.3,0.4c0.1,0.2,0.1,0.4,0.2,0.6s0.1,0.5,0.1,0.7
				c0.4-0.5,1-1,1.8-1.4c0.7-0.4,1.6-0.6,2.5-0.6c0.9,0,1.7,0.1,2.4,0.4c0.7,0.3,1.3,0.7,1.8,1.2c0.5,0.5,0.8,1.1,1.1,1.8
				c0.2,0.7,0.4,1.5,0.4,2.3v7.9c0,0.3-0.1,0.4-0.2,0.5c-0.1,0.1-0.3,0.1-0.5,0.1h-2.6c-0.3,0-0.5,0-0.6-0.1
				c-0.1-0.1-0.1-0.3-0.1-0.5v-7.3c0-0.8-0.2-1.4-0.7-1.9c-0.5-0.5-1.1-0.7-1.9-0.7c-0.3,0-0.6,0.1-1,0.2c-0.3,0.1-0.6,0.3-0.9,0.5
				s-0.5,0.5-0.7,0.8c-0.2,0.3-0.3,0.6-0.4,1v7.4c0,0.2,0,0.4-0.1,0.5s-0.3,0.1-0.6,0.1h-2.6c-0.3,0-0.5,0-0.6-0.1
				c-0.1-0.1-0.1-0.3-0.1-0.5v-12.6c0-0.6,0.3-0.9,0.9-0.9H611.9z"/>
			<path class="st0" d="M627.5,248.4c0-0.5,0.3-0.8,0.9-0.8l2.1-0.3c0,0,0.1,0,0.2,0c0.3,0,0.4,0.1,0.5,0.2c0.1,0.2,0.1,0.4,0.1,0.6
				v4.2h1.7c0.2,0,0.4,0.1,0.6,0.2c0.1,0.1,0.2,0.3,0.2,0.6v1.6c0,0.3-0.1,0.5-0.2,0.7s-0.3,0.2-0.6,0.2h-1.7v10
				c0,0.3-0.1,0.5-0.2,0.6c-0.1,0.1-0.3,0.2-0.6,0.2h-2.4c-0.3,0-0.5-0.1-0.6-0.2s-0.1-0.3-0.1-0.6v-10h-0.8c-0.6,0-0.8-0.3-0.8-0.9
				v-1.6c0-0.6,0.3-0.8,0.8-0.8h0.8V248.4z"/>
			<path class="st0" d="M658.8,253.5l-7,17.9c-0.2,0.4-0.5,0.6-0.9,0.6h-2.3c-0.2,0-0.4,0-0.6-0.1c-0.2-0.1-0.2-0.2-0.2-0.5
				c0-0.1,0-0.2,0.1-0.4l1.8-4.8l-5.2-12.8c-0.1-0.1-0.1-0.2-0.1-0.3c0-0.1,0-0.1,0-0.2c0-0.4,0.3-0.6,0.8-0.6h2.5
				c0.2,0,0.4,0.1,0.6,0.2c0.2,0.1,0.3,0.3,0.3,0.5l3.1,8.4l3.1-8.4c0.1-0.4,0.4-0.6,0.9-0.6h2.5c0.3,0,0.5,0.1,0.6,0.2
				c0.1,0.1,0.2,0.3,0.2,0.5C658.9,253.1,658.9,253.3,658.8,253.5z"/>
			<path class="st0" d="M660.4,259.3c0-1,0.2-2,0.6-2.9s0.9-1.7,1.6-2.4c0.7-0.7,1.5-1.2,2.4-1.6c0.9-0.4,1.9-0.6,2.9-0.6
				c1,0,2,0.2,2.9,0.6c0.9,0.4,1.7,0.9,2.4,1.6c0.7,0.7,1.2,1.5,1.6,2.4c0.4,0.9,0.6,1.9,0.6,2.9s-0.2,2-0.6,2.9
				c-0.4,0.9-0.9,1.7-1.6,2.3c-0.7,0.7-1.5,1.2-2.4,1.6c-0.9,0.4-1.9,0.6-2.9,0.6c-1,0-2-0.2-2.9-0.6c-0.9-0.4-1.7-0.9-2.4-1.6
				c-0.7-0.7-1.2-1.4-1.6-2.3S660.4,260.4,660.4,259.3z M664.2,259.4c0,0.5,0.1,1,0.3,1.4s0.4,0.8,0.8,1.2c0.3,0.3,0.7,0.6,1.1,0.8
				c0.4,0.2,0.9,0.3,1.4,0.3c0.5,0,1-0.1,1.4-0.3c0.4-0.2,0.8-0.5,1.1-0.8c0.3-0.3,0.6-0.7,0.8-1.2c0.2-0.4,0.3-0.9,0.3-1.4
				s-0.1-1-0.3-1.4c-0.2-0.4-0.4-0.8-0.8-1.2c-0.3-0.3-0.7-0.6-1.1-0.8c-0.4-0.2-0.9-0.3-1.4-0.3c-0.5,0-1,0.1-1.4,0.3
				c-0.4,0.2-0.8,0.5-1.1,0.8c-0.3,0.3-0.6,0.7-0.8,1.2C664.3,258.4,664.2,258.9,664.2,259.4z"/>
			<path class="st0" d="M689.1,266.3c-0.3,0-0.5,0-0.7-0.1c-0.2-0.1-0.3-0.2-0.3-0.4c-0.1-0.2-0.1-0.3-0.2-0.5
				c0-0.2-0.1-0.4-0.2-0.7c-0.4,0.5-1.1,0.9-1.9,1.3c-0.8,0.4-1.7,0.6-2.6,0.6c-0.9,0-1.7-0.1-2.3-0.4c-0.7-0.3-1.2-0.7-1.7-1.2
				s-0.8-1.1-1-1.8s-0.3-1.4-0.3-2.3v-7.7c0-0.3,0.1-0.5,0.2-0.6c0.2-0.2,0.4-0.2,0.6-0.2h2.4c0.3,0,0.5,0.1,0.6,0.2
				c0.1,0.1,0.2,0.3,0.2,0.6v7.1c0,0.8,0.2,1.4,0.7,1.9s1,0.7,1.8,0.7c0.3,0,0.6-0.1,1-0.2s0.7-0.3,1.1-0.5c0.3-0.2,0.6-0.5,0.8-0.8
				c0.2-0.3,0.3-0.6,0.3-1v-7.2c0-0.5,0.3-0.8,0.8-0.8h2.3c0.3,0,0.5,0.1,0.6,0.2c0.1,0.2,0.2,0.3,0.2,0.6v12.4
				c0,0.6-0.3,0.9-0.9,0.9H689.1z"/>
			<path class="st0" d="M697.8,253.1c0,0.1,0.1,0.3,0.1,0.6s0.1,0.5,0.1,0.6c0.2-0.2,0.4-0.5,0.6-0.7c0.2-0.2,0.5-0.5,0.8-0.7
				c0.3-0.2,0.6-0.4,1-0.5c0.4-0.1,0.7-0.2,1.2-0.2c0.1,0,0.2,0,0.3,0c0.1,0,0.2,0,0.3,0c0.3,0,0.6,0.1,0.9,0.2
				c0.3,0.1,0.7,0.3,1,0.4c0.3,0.2,0.6,0.3,0.8,0.5c0.2,0.2,0.3,0.3,0.3,0.5c0,0.1,0,0.2-0.1,0.4L704,256c-0.2,0.3-0.4,0.4-0.6,0.4
				c-0.1,0-0.2,0-0.3-0.1c-0.2-0.1-0.3-0.1-0.5-0.2c-0.3-0.2-0.5-0.3-0.7-0.4c-0.2-0.1-0.4-0.1-0.7-0.1c-0.4,0-0.8,0.1-1.1,0.2
				c-0.3,0.2-0.6,0.4-0.8,0.6s-0.4,0.6-0.5,0.9c-0.1,0.3-0.2,0.7-0.2,1v7.3c0,0.5-0.3,0.7-0.8,0.7h-2.4c-0.5,0-0.7-0.2-0.7-0.7
				v-12.6c0-0.2,0.1-0.4,0.2-0.6s0.3-0.2,0.5-0.2h1.8c0.2,0,0.4,0.1,0.5,0.2C697.7,252.7,697.8,252.9,697.8,253.1z"/>
			<path class="st0" d="M717.3,265.8v-20.1c0-0.4,0.2-0.6,0.5-0.6h8.3c1,0,1.9,0.2,2.7,0.6c0.8,0.4,1.5,0.9,2.1,1.5
				c0.6,0.6,1.1,1.4,1.4,2.2s0.5,1.7,0.5,2.6s-0.2,1.7-0.5,2.5c-0.3,0.8-0.8,1.5-1.4,2.2c-0.6,0.6-1.3,1.1-2.1,1.5
				c-0.8,0.4-1.7,0.6-2.7,0.6h-4.7v7.1c0,0.4-0.2,0.6-0.6,0.6h-3C717.5,266.3,717.3,266.1,717.3,265.8z M725.4,248.7h-3.9v6.4h3.9
				c1,0,1.7-0.3,2.3-0.9s0.9-1.4,0.9-2.3c0-0.4-0.1-0.9-0.2-1.2c-0.2-0.4-0.4-0.7-0.7-1c-0.3-0.3-0.6-0.5-1-0.7
				C726.3,248.8,725.9,248.7,725.4,248.7z"/>
		</g>
		<text transform="matrix(1 0 0 1 733.04 266.34)" class="st0 st8 st9 st10">r</text>
		<g class="st6">
			<path class="st0" d="M746.3,259.3c0-1,0.2-2,0.6-2.9s0.9-1.7,1.6-2.4c0.7-0.7,1.5-1.2,2.4-1.6c0.9-0.4,1.9-0.6,2.9-0.6
				c1,0,2,0.2,2.9,0.6c0.9,0.4,1.7,0.9,2.4,1.6c0.7,0.7,1.2,1.5,1.6,2.4c0.4,0.9,0.6,1.9,0.6,2.9s-0.2,2-0.6,2.9
				c-0.4,0.9-0.9,1.7-1.6,2.3c-0.7,0.7-1.5,1.2-2.4,1.6c-0.9,0.4-1.9,0.6-2.9,0.6c-1,0-2-0.2-2.9-0.6c-0.9-0.4-1.7-0.9-2.4-1.6
				c-0.7-0.7-1.2-1.4-1.6-2.3S746.3,260.4,746.3,259.3z M750.1,259.4c0,0.5,0.1,1,0.3,1.4s0.4,0.8,0.8,1.2c0.3,0.3,0.7,0.6,1.1,0.8
				c0.4,0.2,0.9,0.3,1.4,0.3c0.5,0,1-0.1,1.4-0.3c0.4-0.2,0.8-0.5,1.1-0.8c0.3-0.3,0.6-0.7,0.8-1.2c0.2-0.4,0.3-0.9,0.3-1.4
				s-0.1-1-0.3-1.4c-0.2-0.4-0.4-0.8-0.8-1.2c-0.3-0.3-0.7-0.6-1.1-0.8c-0.4-0.2-0.9-0.3-1.4-0.3c-0.5,0-1,0.1-1.4,0.3
				c-0.4,0.2-0.8,0.5-1.1,0.8c-0.3,0.3-0.6,0.7-0.8,1.2C750.2,258.4,750.1,258.9,750.1,259.4z"/>
			<path class="st0" d="M777.4,245.8v19.9c0,0.5-0.2,0.7-0.7,0.7h-1.3c-0.4,0-0.7,0-1-0.1c-0.3-0.1-0.4-0.3-0.5-0.6
				c-0.1-0.3-0.1-0.7-0.2-1c-0.5,0.7-1,1.2-1.6,1.5c-0.6,0.3-1.4,0.5-2.3,0.5c-1,0-1.9-0.2-2.7-0.6c-0.8-0.4-1.5-0.9-2.1-1.5
				c-0.6-0.7-1.1-1.4-1.4-2.3c-0.3-0.9-0.5-1.8-0.5-2.8c0-1,0.2-2,0.5-2.8c0.3-0.9,0.8-1.7,1.4-2.3c0.6-0.7,1.3-1.2,2.1-1.6
				c0.8-0.4,1.8-0.6,2.8-0.6c0.9,0,1.6,0.2,2.2,0.5c0.5,0.3,1,0.7,1.4,1.2v-8c0-0.5,0.2-0.7,0.7-0.7h2.4c0.2,0,0.4,0.1,0.6,0.2
				S777.4,245.6,777.4,245.8z M773.8,259.4c0-0.5-0.1-1-0.3-1.5c-0.2-0.5-0.4-0.9-0.7-1.2c-0.3-0.3-0.7-0.6-1.1-0.8
				c-0.4-0.2-0.9-0.3-1.4-0.3c-0.5,0-1,0.1-1.4,0.3c-0.4,0.2-0.8,0.5-1.1,0.8c-0.3,0.3-0.5,0.8-0.7,1.2c-0.2,0.5-0.2,1-0.2,1.5
				c0,0.5,0.1,1,0.2,1.5c0.2,0.5,0.4,0.9,0.7,1.2c0.3,0.3,0.6,0.6,1.1,0.8c0.4,0.2,0.9,0.3,1.4,0.3c0.5,0,1-0.1,1.4-0.3
				s0.8-0.5,1.1-0.8c0.3-0.3,0.5-0.7,0.7-1.2S773.8,259.9,773.8,259.4L773.8,259.4z"/>
			<path class="st0" d="M791.7,266.3c-0.3,0-0.5,0-0.7-0.1c-0.2-0.1-0.3-0.2-0.3-0.4c-0.1-0.2-0.1-0.3-0.2-0.5
				c0-0.2-0.1-0.4-0.2-0.7c-0.4,0.5-1.1,0.9-1.9,1.3c-0.8,0.4-1.7,0.6-2.6,0.6c-0.9,0-1.7-0.1-2.3-0.4c-0.7-0.3-1.2-0.7-1.7-1.2
				s-0.8-1.1-1-1.8s-0.3-1.4-0.3-2.3v-7.7c0-0.3,0.1-0.5,0.2-0.6c0.2-0.2,0.4-0.2,0.6-0.2h2.4c0.3,0,0.5,0.1,0.6,0.2
				c0.1,0.1,0.2,0.3,0.2,0.6v7.1c0,0.8,0.2,1.4,0.7,1.9s1,0.7,1.8,0.7c0.3,0,0.6-0.1,1-0.2s0.7-0.3,1.1-0.5c0.3-0.2,0.6-0.5,0.8-0.8
				c0.2-0.3,0.3-0.6,0.3-1v-7.2c0-0.5,0.3-0.8,0.8-0.8h2.3c0.3,0,0.5,0.1,0.6,0.2c0.1,0.2,0.2,0.3,0.2,0.6v12.4
				c0,0.6-0.3,0.9-0.9,0.9H791.7z"/>
			<path class="st0" d="M803.3,263.1c0.6,0,1.1-0.1,1.5-0.3s0.9-0.3,1.3-0.5c0.2-0.1,0.3-0.1,0.4-0.1c0.1,0,0.3,0.1,0.4,0.3l1.2,1.8
				c0.1,0.2,0.1,0.3,0.1,0.3c0,0.2-0.1,0.3-0.2,0.4c-0.1,0.1-0.2,0.2-0.3,0.3c-0.6,0.4-1.3,0.8-2.1,1c-0.7,0.3-1.5,0.4-2.4,0.4
				c-1,0-2-0.2-2.9-0.6c-0.9-0.4-1.7-0.9-2.3-1.6c-0.7-0.7-1.2-1.4-1.6-2.3s-0.6-1.8-0.6-2.9s0.2-2,0.6-2.9s0.9-1.7,1.6-2.4
				c0.7-0.7,1.4-1.2,2.3-1.6c0.9-0.4,1.8-0.6,2.9-0.6c0.8,0,1.5,0.1,2.2,0.4c0.7,0.2,1.4,0.6,2.1,1h0c0.2,0.1,0.3,0.2,0.4,0.3
				c0.1,0.1,0.1,0.2,0.1,0.4c0,0,0,0.1,0,0.2c0,0.1,0,0.1-0.1,0.2l-1.1,1.9c0,0.1-0.1,0.1-0.2,0.2c-0.1,0.1-0.2,0.1-0.3,0.1
				c-0.1,0-0.2-0.1-0.5-0.2c-0.3-0.3-0.7-0.5-1.2-0.6c-0.5-0.2-0.9-0.2-1.4-0.2c-0.5,0-1,0.1-1.5,0.3s-0.9,0.5-1.2,0.8
				c-0.3,0.4-0.6,0.8-0.8,1.2s-0.3,1-0.3,1.5c0,1.1,0.3,2,1,2.7C801.4,262.8,802.3,263.1,803.3,263.1z"/>
			<path class="st0" d="M812,248.4c0-0.5,0.3-0.8,0.9-0.8l2.1-0.3c0,0,0.1,0,0.2,0c0.3,0,0.4,0.1,0.5,0.2c0.1,0.2,0.1,0.4,0.1,0.6
				v4.2h1.7c0.2,0,0.4,0.1,0.6,0.2c0.1,0.1,0.2,0.3,0.2,0.6v1.6c0,0.3-0.1,0.5-0.2,0.7s-0.3,0.2-0.6,0.2h-1.7v10
				c0,0.3-0.1,0.5-0.2,0.6s-0.3,0.2-0.6,0.2h-2.4c-0.3,0-0.5-0.1-0.6-0.2c-0.1-0.1-0.1-0.3-0.1-0.6v-10h-0.8c-0.6,0-0.8-0.3-0.8-0.9
				v-1.6c0-0.6,0.3-0.8,0.8-0.8h0.8V248.4z"/>
			<path class="st0" d="M820.7,248.1c0-0.6,0.2-1.1,0.6-1.6c0.4-0.4,1-0.6,1.6-0.6c0.6,0,1.2,0.2,1.6,0.6c0.4,0.4,0.6,1,0.6,1.6
				s-0.2,1.1-0.6,1.5c-0.4,0.4-0.9,0.6-1.6,0.6c-0.6,0-1.1-0.2-1.6-0.6C820.9,249.2,820.7,248.7,820.7,248.1z M825,252.9v12.7
				c0,0.4-0.2,0.7-0.7,0.7h-2.5c-0.4,0-0.7-0.2-0.7-0.7v-12.7c0-0.2,0.1-0.4,0.2-0.5c0.1-0.1,0.3-0.2,0.5-0.2h2.5
				c0.2,0,0.3,0.1,0.5,0.2C824.9,252.6,825,252.7,825,252.9z"/>
			<path class="st0" d="M832,252.9l2.8,7.9l2.8-7.9c0.2-0.4,0.5-0.6,1-0.6h2.6c0.5,0,0.8,0.2,0.8,0.7c0,0.1,0,0.2,0,0.2s0,0.1,0,0.1
				l-5,12.2c-0.1,0.2-0.2,0.4-0.4,0.6c-0.2,0.2-0.4,0.3-0.6,0.3h-2.1c-0.3,0-0.6-0.1-0.7-0.4c-0.2-0.2-0.3-0.5-0.4-0.8l-2.4-5.8
				c-0.4-1-0.8-2-1.2-3c-0.4-1-0.8-2-1.2-3c0-0.1,0-0.1-0.1-0.2c0-0.1,0-0.2,0-0.3c0-0.4,0.2-0.6,0.7-0.6h2.6
				C831.6,252.3,831.9,252.5,832,252.9z"/>
			<path class="st0" d="M844.1,248.1c0-0.6,0.2-1.1,0.6-1.6c0.4-0.4,1-0.6,1.6-0.6c0.6,0,1.2,0.2,1.6,0.6c0.4,0.4,0.6,1,0.6,1.6
				s-0.2,1.1-0.6,1.5c-0.4,0.4-0.9,0.6-1.6,0.6c-0.6,0-1.1-0.2-1.6-0.6C844.3,249.2,844.1,248.7,844.1,248.1z M848.4,252.9v12.7
				c0,0.4-0.2,0.7-0.7,0.7h-2.5c-0.4,0-0.7-0.2-0.7-0.7v-12.7c0-0.2,0.1-0.4,0.2-0.5c0.1-0.1,0.3-0.2,0.5-0.2h2.5
				c0.2,0,0.3,0.1,0.5,0.2C848.3,252.6,848.4,252.7,848.4,252.9z"/>
		</g>
		<g class="st6">
			<path class="st0" d="M853,248.4c0-0.5,0.3-0.8,0.9-0.8l2.1-0.3c0,0,0.1,0,0.2,0c0.3,0,0.4,0.1,0.5,0.2c0.1,0.2,0.1,0.4,0.1,0.6
				v4.2h1.7c0.2,0,0.4,0.1,0.6,0.2c0.1,0.1,0.2,0.3,0.2,0.6v1.6c0,0.3-0.1,0.5-0.2,0.7s-0.3,0.2-0.6,0.2h-1.7v10
				c0,0.3-0.1,0.5-0.2,0.6s-0.3,0.2-0.6,0.2h-2.4c-0.3,0-0.5-0.1-0.6-0.2s-0.1-0.3-0.1-0.6v-10h-0.8c-0.6,0-0.8-0.3-0.8-0.9v-1.6
				c0-0.6,0.3-0.8,0.8-0.8h0.8V248.4z"/>
		</g>
		<g class="st6">
			<path class="st0" d="M876.4,253.5l-7,17.9c-0.2,0.4-0.5,0.6-0.9,0.6h-2.3c-0.2,0-0.4,0-0.6-0.1c-0.2-0.1-0.2-0.2-0.2-0.5
				c0-0.1,0-0.2,0.1-0.4l1.8-4.8l-5.2-12.8c-0.1-0.1-0.1-0.2-0.1-0.3s0-0.1,0-0.2c0-0.4,0.3-0.6,0.8-0.6h2.5c0.2,0,0.4,0.1,0.6,0.2
				c0.2,0.1,0.3,0.3,0.3,0.5l3.1,8.4l3.1-8.4c0.1-0.4,0.4-0.6,0.9-0.6h2.5c0.3,0,0.5,0.1,0.6,0.2c0.1,0.1,0.2,0.3,0.2,0.5
				C876.5,253.1,876.5,253.3,876.4,253.5z"/>
			<path class="st0" d="M879,246c0-0.6,0.2-1.1,0.6-1.5c0.4-0.4,0.9-0.6,1.5-0.6c0.6,0,1.1,0.2,1.5,0.6s0.6,1,0.6,1.7
				c0,0.7-0.1,1.3-0.2,1.9c-0.2,0.5-0.3,1-0.5,1.3c-0.2,0.4-0.4,0.6-0.6,0.8c-0.2,0.2-0.4,0.3-0.5,0.3c-0.2,0-0.3,0-0.4-0.1
				l-0.6-0.5c-0.1-0.1-0.1-0.2-0.1-0.3c0-0.1,0-0.2,0.1-0.3l0.2-0.2c0.1-0.1,0.1-0.2,0.2-0.3s0.1-0.3,0.1-0.5
				c-0.5-0.1-0.9-0.3-1.2-0.7C879.2,246.9,879,246.5,879,246z M884.5,246c0-0.6,0.2-1.1,0.6-1.5s0.9-0.6,1.5-0.6
				c0.6,0,1.1,0.2,1.5,0.6c0.4,0.4,0.6,1,0.6,1.7c0,0.7-0.1,1.3-0.2,1.9s-0.3,1-0.5,1.3c-0.2,0.4-0.4,0.6-0.6,0.8
				c-0.2,0.2-0.4,0.3-0.5,0.3c-0.2,0-0.3,0-0.4-0.1l-0.6-0.5c-0.1-0.1-0.1-0.2-0.1-0.3c0-0.1,0-0.2,0.1-0.3l0.2-0.2
				c0.1-0.1,0.1-0.2,0.2-0.3c0.1-0.1,0.1-0.3,0.1-0.5c-0.5-0.1-0.9-0.3-1.2-0.7C884.6,246.9,884.5,246.5,884.5,246z"/>
		</g>
	</g>
</g>
</svg>
