<?xml version="1.0" encoding="utf-8"?>
<!-- Generator: Adobe Illustrator 23.0.0, SVG Export Plug-In . SVG Version: 6.00 Build 0)  -->
<svg version="1.1" id="Layer_1" xmlns="http://www.w3.org/2000/svg" xmlns:xlink="http://www.w3.org/1999/xlink" x="0px" y="0px"
	 viewBox="0 0 936.9 277.4" style="enable-background:new 0 0 936.9 277.4;" xml:space="preserve">
<style type="text/css">
	.st0{fill:#773818;}
	.st1{fill:#FFFFFF;}
	.st2{enable-background:new    ;}
	.st3{fill:#D08629;}
	.st4{fill:#CA9765;}
	.st5{fill:#9B6137;}
</style>
<title>SVG_LOGO_HORIZONTALAsset 9</title>
<g>
	<g id="logo_1_">
		<title>SVG_LOGO_Asset 5</title>
		<g>
			<g id="Layer_1-2_2_">
				<path class="st0" d="M201.9,209.5C178,262.4,115.8,286,62.8,262.1s-76.4-86.1-52.5-139s86.1-76.5,139.1-52.6
					c21.8,9.8,39.6,26.8,50.5,48.2l-42.3,17.8l-21.5,53.8L201.9,209.5z"/>
				<path class="st1" d="M164.7,166.7c-2.8,11.9-7.4,23.1-14.5,33.1c-0.8,0.9-1.9,1.5-3.1,1.5c-25.7,0.1-51.5,0.1-77.3,0
					c-1.1-0.1-2.2-0.6-2.9-1.4c-2-2.8-3.8-5.8-5.5-8.8c-0.7-1.6-2.3-2.5-4-2.4c-9.7-0.2-17.1-4.4-22.2-12.6
					c-6.1-9.8-1.6-20.6,9.4-23c1.7-0.4,4.3-0.2,5-1.2c0.8-1.3,0-3.6-0.1-5.5c-0.3-3.9-0.3-3.9,3.5-3.9h114.8
					C167.6,150.8,166.6,158.9,164.7,166.7z M53.8,172c-0.9-3.5-1.8-7-2.5-10.6c-0.3-1.7-1-2.1-2.6-1.8c-7.4,1.2-10.5,8.1-6.3,14.3
					c3.3,4.8,8.2,7,14.3,7.9C55.7,178.2,54.7,175.1,53.8,172L53.8,172z"/>
				<ellipse class="st1" cx="108.6" cy="142.6" rx="59" ry="26.9"/>
				<ellipse class="st0" cx="108.8" cy="137.6" rx="43.3" ry="14.8"/>
				<g class="st2">
					<path class="st0" d="M243.7,100.3h20.7v43h41.9v20.1h-41.9v43.2h-20.7v-43.2h-41.9v-20.1h41.9V100.3z"/>
				</g>
				<path class="st3" d="M94.3,16c-1.4,1.2-3.1,2.1-4.2,3.4c-3.6,4.5-7.7,8.9-10.4,13.9c-3.8,7,0.7,13,4.4,18.6
					c4,6,8.9,11.4,12.6,17.5c3.2,5.3,6.1,11.1,7.5,17c1.8,7.3-0.3,15-5.4,20.4c-0.2,0.2-0.1,0.6-0.2,1c0.2,0,0.4,0.1,0.6,0
					c1.9-0.9,3.8-1.9,5.7-2.8c6.6-3.3,11.3-12,10.3-19.3c-1.3-9.6-6.4-17.2-12.1-24.7c-4.8-6.2-9.2-12.7-13-19.6
					c-4.6-8.3-1.7-16.1,3.8-23.1c0.4-0.6,0.7-1.3,1-2C94.8,16.4,94.5,16.2,94.3,16z M134,76.6c0.1-6.7-2.4-12.8-6-18.2
					c-4.6-6.8-10.4-12.7-15-19.5c-2.6-4-4.4-8.4-5.5-13c-1.7-7.4,2.3-13.4,6.5-19.1c0.2-0.3,0.2-0.9,0.2-1.3c-0.4,0.1-0.9,0-1.2,0.3
					c-3.8,3.7-7.7,7.2-11.1,11.3s-5.5,9.1-3.5,13.9c2.7,6.3,6.1,12.3,10.3,17.8c6.1,8.2,12.6,16.1,14.8,26.5
					c1.7,7.7-0.3,14.3-5,20.4c-0.3,0.5-0.6,1-0.8,1.5c0.5,0,1-0.1,1.5-0.3C128,93.7,134,85.5,134,76.6z"/>
				<path class="st4" d="M94.3,16c0.2,0.2,0.5,0.3,0.5,0.4c-0.2,0.7-0.6,1.4-1,2c-5.5,7-8.4,14.7-3.8,23.1c3.9,6.8,8.2,13.4,13,19.6
					c5.6,7.5,10.8,15.1,12.1,24.7c1,7.3-3.7,16-10.3,19.3c-1.9,0.9-3.8,1.9-5.7,2.8c-0.2,0.1-0.4,0-0.6,0c0-0.3,0-0.8,0.2-1
					c5.2-5.4,7.2-13.1,5.4-20.4c-1.4-5.9-4.3-11.7-7.5-17C92.9,63.3,88,57.9,84,51.9c-3.7-5.6-8.1-11.6-4.4-18.5
					c2.7-5.1,6.8-9.4,10.4-13.9C91.2,18.1,92.9,17.2,94.3,16z"/>
				<path class="st4" d="M134,76.6c0,8.9-6,17.2-14.7,20.4c-0.5,0.1-1,0.2-1.5,0.3c0.2-0.5,0.5-1,0.8-1.5c4.7-6.1,6.7-12.7,5-20.4
					c-2.2-10.5-8.7-18.3-14.8-26.6c-4.2-5.5-7.6-11.5-10.3-17.8c-2-4.8,0.3-9.9,3.5-13.9c3.3-4,7.4-7.6,11.1-11.3
					c0.2-0.2,0.8-0.2,1.2-0.3c-0.1,0.4,0,1-0.2,1.3c-4.2,5.7-8.2,11.6-6.5,19.1c1,4.6,2.9,9.1,5.5,13c4.6,6.8,10.4,12.7,15,19.4
					C131.6,63.8,134,69.9,134,76.6z"/>
				<g>
					<g class="st2">
						<path class="st4" d="M359.2,100.3h20.7v43h41.9v20.1h-41.9v43.2h-20.7v-43.2h-41.9v-20.1h41.9V100.3z"/>
					</g>
				</g>
				<path class="st1" d="M167.7,142.6c0,0-3.3,74.3-37.7,81.3s-48.7-7.3-48.7-7.3L167.7,142.6z"/>
				<path class="st1" d="M56.7,181.9c0,0,9.3,48.5,59,43.9v-30.4L84,191.6c0,0-15.4-5.8-17.2-7.3C65,182.7,56.7,181.9,56.7,181.9z"
					/>
			</g>
		</g>
	</g>
	<g class="st2">
		<path class="st0" d="M531.2,122.6c0.8-0.5,1.4-0.9,2-0.9c0.6-0.1,1.2,0.2,1.6,0.9l8.4,12.3c0.5,0.8,0.8,1.3,0.6,1.8
			c-0.1,0.4-0.6,0.9-1.3,1.5c-2.7,2-5.9,3.6-9.6,5c-3.7,1.3-7.8,2-12.4,2c-5.4,0-10.5-1-15.3-3.1c-4.8-2-9-4.9-12.5-8.4
			s-6.4-7.8-8.4-12.5c-2-4.8-3.1-9.9-3.1-15.3c0-5.5,1-10.5,3.1-15.3c2-4.7,4.9-8.8,8.4-12.4c3.6-3.5,7.8-6.3,12.5-8.3
			c4.8-2,9.9-3,15.3-3c4.6,0,8.8,0.7,12.4,2.1c3.7,1.4,6.9,3.1,9.8,5.1c0.5,0.3,0.9,0.8,0.9,1.3c0.1,0.5,0,1-0.2,1.3l-8.9,12.8
			c-0.4,0.5-0.9,0.8-1.5,0.8c-0.6,0-1.1-0.3-1.7-0.8c-1.7-1.4-3.4-2.3-5.1-2.9c-1.7-0.6-3.6-0.9-5.7-0.9c-2.9,0-5.5,0.5-7.9,1.5
			c-2.4,1-4.5,2.4-6.3,4.2c-1.8,1.8-3.2,3.9-4.1,6.4c-1,2.5-1.5,5.1-1.5,8c0,2.9,0.5,5.5,1.5,8c1,2.5,2.4,4.7,4.1,6.5
			c1.8,1.8,3.9,3.3,6.3,4.4c2.4,1.1,5.1,1.6,7.9,1.6c2.2,0,4.2-0.4,5.9-1.1C528.2,124.4,529.8,123.5,531.2,122.6z"/>
		<path class="st0" d="M552.2,119c0-3.6,0.7-7,2.1-10.2c1.4-3.2,3.3-6,5.7-8.4c2.4-2.4,5.3-4.3,8.5-5.6c3.2-1.4,6.7-2,10.5-2
			c3.7,0,7.1,0.7,10.4,2c3.2,1.4,6.1,3.2,8.5,5.6c2.4,2.4,4.3,5.2,5.7,8.4c1.4,3.2,2.1,6.6,2.1,10.2c0,3.6-0.7,7-2.1,10.2
			c-1.4,3.2-3.3,5.9-5.7,8.2c-2.4,2.3-5.3,4.1-8.5,5.5c-3.2,1.3-6.7,2-10.4,2c-3.8,0-7.3-0.7-10.5-2c-3.2-1.3-6.1-3.2-8.5-5.5
			c-2.4-2.3-4.3-5.1-5.7-8.2C552.9,126,552.2,122.6,552.2,119z M570.4,119.2c0,2.7,0.8,5,2.4,6.8c1.6,1.8,3.7,2.7,6.3,2.7
			c2.6,0,4.7-0.9,6.2-2.7c1.6-1.8,2.4-4.1,2.4-6.8c0-2.7-0.8-4.9-2.4-6.8c-1.6-1.9-3.7-2.8-6.2-2.8c-2.7,0-4.8,0.9-6.3,2.8
			C571.2,114.3,570.4,116.5,570.4,119.2z"/>
		<path class="st0" d="M650.3,92.8v-8.1c0-3.3,0.7-6,2.1-8.3s3.2-4.1,5.4-5.4c2.2-1.4,4.6-2.4,7.3-3c2.7-0.6,5.3-0.9,7.7-0.9
			c2.2,0,3.3,1,3.3,3v10.6c0,1.8-0.8,2.7-2.4,2.7h-0.2c-1.6,0-3,0.3-4,0.9c-1,0.6-1.5,1.7-1.5,3.2v5.3h3.3c0.9,0,1.6,0.2,2.1,0.7
			c0.5,0.5,0.8,1.2,0.8,2.3v8c0,0.9-0.3,1.6-0.8,2.3c-0.5,0.6-1.2,0.9-2.2,0.9h-3.3v34.5c0,0.8-0.3,1.4-0.8,1.8
			c-0.5,0.5-1.2,0.7-1.9,0.7h-12.2c-0.8,0-1.4-0.2-2-0.7c-0.6-0.5-0.9-1.1-0.9-1.8v-34.5h-2.7h-0.3h-12v34.5c0,0.8-0.3,1.4-0.8,1.8
			c-0.5,0.5-1.1,0.7-1.9,0.7h-12.3c-0.8,0-1.4-0.2-1.9-0.7c-0.5-0.5-0.8-1.1-0.8-1.8v-34.5h-2.8c-2,0-3-1.1-3-3.2v-8c0-2,1-3,3-3
			h2.8v-8.1c0-3.3,0.7-6,2.1-8.3s3.2-4.1,5.4-5.4c2.2-1.4,4.6-2.4,7.3-3s5.3-0.9,7.8-0.9c2.1,0,3.2,1,3.2,3v10.6
			c0,1.8-0.8,2.7-2.4,2.7h-0.2c-1.6,0-2.9,0.3-3.9,0.9c-1,0.6-1.6,1.7-1.6,3.2v5.3h12h0.3H650.3z"/>
		<path class="st0" d="M723,139.8c-4.6,3.7-10,5.5-16.1,5.5c-3.5,0-6.9-0.7-10.1-2s-6-3.2-8.3-5.6c-2.4-2.4-4.3-5.2-5.6-8.3
			c-1.4-3.2-2-6.6-2-10.3c0-3.5,0.6-6.8,1.9-10c1.3-3.2,3-6,5.2-8.4c2.2-2.4,4.8-4.4,7.9-5.8c3.1-1.4,6.4-2.1,9.9-2.1
			c3.3,0,6.5,0.6,9.5,1.9c3,1.3,5.6,3,7.9,5.2c2.3,2.2,4.1,4.8,5.4,7.8s2,6.2,2,9.6c0,2.4-0.5,4.1-1.6,5.2c-1.1,1.1-3.1,1.6-6.2,1.6
			h-25.3c0.7,2.4,2,4.2,3.9,5.3c1.9,1.2,3.7,1.7,5.3,1.7c1.4,0,2.7-0.2,4.1-0.6c1.4-0.4,2.5-0.9,3.4-1.4c0.8-0.3,1.3-0.7,1.6-1
			c0.3-0.3,0.8-0.5,1.2-0.5c0.5,0,1.1,0.3,1.7,1l5.1,7.4c0.3,0.4,0.5,0.9,0.5,1.5C724.6,138.3,724,139.1,723,139.8z M706,107
			c-1.8,0-3.5,0.6-4.9,1.7c-1.4,1.2-2.5,2.5-3.3,4h17.1c-0.8-1.4-1.9-2.7-3.3-3.9C710.3,107.6,708.4,107,706,107z"/>
		<path class="st0" d="M781,139.8c-4.6,3.7-10,5.5-16.1,5.5c-3.5,0-6.9-0.7-10.1-2s-6-3.2-8.3-5.6c-2.4-2.4-4.3-5.2-5.6-8.3
			c-1.4-3.2-2-6.6-2-10.3c0-3.5,0.6-6.8,1.9-10c1.3-3.2,3-6,5.2-8.4c2.2-2.4,4.8-4.4,7.9-5.8c3.1-1.4,6.4-2.1,9.9-2.1
			c3.3,0,6.5,0.6,9.5,1.9c3,1.3,5.6,3,7.9,5.2c2.3,2.2,4.1,4.8,5.4,7.8s2,6.2,2,9.6c0,2.4-0.5,4.1-1.6,5.2c-1.1,1.1-3.1,1.6-6.2,1.6
			h-25.3c0.7,2.4,2,4.2,3.9,5.3c1.9,1.2,3.7,1.7,5.3,1.7c1.4,0,2.7-0.2,4.1-0.6c1.4-0.4,2.5-0.9,3.4-1.4c0.8-0.3,1.3-0.7,1.6-1
			c0.3-0.3,0.8-0.5,1.2-0.5c0.5,0,1.1,0.3,1.7,1l5.1,7.4c0.3,0.4,0.5,0.9,0.5,1.5C782.5,138.3,782,139.1,781,139.8z M764,107
			c-1.8,0-3.5,0.6-4.9,1.7c-1.4,1.2-2.5,2.5-3.3,4h17.1c-0.8-1.4-1.9-2.7-3.3-3.9C768.2,107.6,766.4,107,764,107z"/>
	</g>
	<g class="st2">
		<path class="st5" d="M483.9,229.9v-68.1c0-0.7,0.2-1.3,0.6-1.6c0.4-0.4,0.9-0.5,1.5-0.5h31.3c3.3,0,6.4,0.7,9.1,2
			c2.8,1.4,5.1,3.2,7.1,5.4c2,2.2,3.5,4.7,4.6,7.6c1.1,2.8,1.7,5.7,1.7,8.7c0,2.9-0.5,5.8-1.6,8.6c-1.1,2.8-2.6,5.3-4.5,7.5
			c-2,2.2-4.3,4-7,5.3c-2.7,1.3-5.8,2-9.1,2h-14.9v23.1c0,1.4-0.7,2.1-2.2,2.1h-14.4C484.6,232.1,483.9,231.4,483.9,229.9z
			 M513.1,175.1h-10.5v16.3h10.5c2.4,0,4.3-0.8,5.6-2.5c1.3-1.7,2-3.5,2-5.6c0-1-0.2-2-0.5-2.9c-0.4-1-0.8-1.9-1.5-2.6
			c-0.6-0.8-1.4-1.4-2.3-1.9C515.4,175.4,514.3,175.1,513.1,175.1z"/>
		<path class="st5" d="M548.6,229.6v-67.4c0-0.7,0.2-1.3,0.6-1.8c0.4-0.5,1-0.7,1.9-0.7h12.2c0.5,0,1.1,0.2,1.7,0.7
			c0.6,0.5,0.9,1.1,0.9,1.8v67.4c0,1.6-0.9,2.4-2.6,2.4h-12.2C549.5,232.1,548.6,231.3,548.6,229.6z"/>
		<path class="st5" d="M626,186.6v42.5c0,2-1,2.9-3,2.9h-6.3c-1.8,0-3.1-0.7-3.9-2s-1.4-2.9-2-4.6c-0.6,0.7-1.4,1.4-2.5,2.2
			c-1.1,0.8-2.3,1.6-3.7,2.4c-1.4,0.7-2.8,1.4-4.4,1.9s-3.1,0.7-4.7,0.7c-3.7,0-6.8-0.5-9.3-1.5c-2.5-1-4.5-2.5-6-4.5
			c-1.5-2-2.6-4.5-3.2-7.5c-0.6-3-0.9-6.5-0.9-10.6v-21.9c0-0.8,0.2-1.4,0.7-1.9c0.5-0.5,1-0.7,1.8-0.7h12.3c1.6,0,2.4,0.8,2.4,2.4
			v23.3c0,2.3,0.6,4,1.7,5.1c1.1,1.1,2.9,1.7,5.4,1.7c0.7,0,1.5-0.1,2.4-0.4c0.9-0.3,1.8-0.7,2.6-1.3c0.8-0.6,1.6-1.2,2.1-2
			s0.9-1.7,1-2.7v-23.6c0-0.8,0.2-1.4,0.5-1.8c0.4-0.4,1.1-0.6,2.1-0.6h12.1c0.9,0,1.6,0.2,2,0.7C625.8,185.3,626,185.9,626,186.6z"
			/>
		<path class="st5" d="M646.3,215.5c3.1,2.5,5.8,3.8,8,3.8c1.6,0,2.9-0.1,4-0.4c1.1-0.3,1.7-0.9,1.7-1.8c0-0.9-0.6-1.6-1.8-2.1
			c-1.2-0.5-2.8-1-4.9-1.6c-3.2-0.8-5.9-1.8-8-2.9c-2.2-1.1-3.9-2.3-5.3-3.7c-1.3-1.4-2.3-2.8-2.8-4.4c-0.6-1.6-0.8-3.3-0.8-5.1
			c0-2.1,0.5-4,1.5-5.7c1-1.7,2.4-3.2,4.1-4.4c1.8-1.2,3.8-2.2,6.2-2.8c2.4-0.6,5-1,7.8-1c3.4,0,6.5,0.4,9.5,1.2
			c2.9,0.8,5.7,2.4,8.2,4.9c0.3,0.5,0.5,0.9,0.5,1.3c0,0.6-0.3,1.2-1,1.8c-0.3,0.3-0.7,0.7-1.3,1.3c-0.6,0.6-1.3,1.3-1.9,2
			c-0.7,0.7-1.3,1.3-1.9,2c-0.6,0.6-1,1.1-1.3,1.3c-0.4,0.4-0.9,0.6-1.5,0.6c-0.7,0-1.4-0.4-2.1-1.1c-0.8-0.8-2-1.5-3.3-1.9
			c-1.4-0.4-2.6-0.6-3.6-0.6c-1,0-2,0.2-2.9,0.7c-0.9,0.5-1.4,1.1-1.4,2c0,0.7,0.2,1.2,0.7,1.5c0.5,0.4,1.1,0.7,1.8,0.9
			c0.7,0.2,1.5,0.4,2.3,0.5c0.8,0.1,1.5,0.3,2.2,0.5c2.4,0.7,4.7,1.5,6.8,2.2c2.1,0.8,3.9,1.7,5.5,2.8c1.6,1.1,2.8,2.5,3.7,4.1
			c0.9,1.6,1.4,3.7,1.4,6.1c0,2.5-0.6,4.8-1.7,6.7c-1.1,2-2.7,3.6-4.6,4.9c-2,1.3-4.2,2.3-6.9,3c-2.6,0.7-5.4,1-8.3,1
			c-3.4,0-6.6-0.6-9.8-1.8c-3.1-1.2-5.9-3.1-8.3-5.7c-0.7-0.6-1-1.3-1-2c0-0.6,0.3-1.1,0.8-1.7l6.4-6.7c0.3-0.3,0.5-0.4,0.7-0.5
			c0.2-0.1,0.4-0.1,0.6-0.2c0.3,0,0.6,0.1,0.9,0.3C645.5,214.9,645.9,215.2,646.3,215.5z"/>
		<path class="st5" d="M688.2,208.6v-9.9c0-1.4,0.7-2.1,2.1-2.1h33.3c0.6,0,1.1,0.2,1.5,0.5c0.4,0.4,0.6,0.9,0.6,1.6v9.9
			c0,0.5-0.2,1-0.6,1.6c-0.4,0.5-0.9,0.8-1.6,0.8h-33.3C688.9,210.9,688.2,210.1,688.2,208.6z"/>
		<path class="st5" d="M741.6,229.9v-68.1c0-0.7,0.2-1.3,0.6-1.6c0.4-0.4,0.9-0.5,1.5-0.5H775c3.3,0,6.4,0.7,9.1,2
			c2.8,1.4,5.1,3.2,7.1,5.4c2,2.2,3.5,4.7,4.6,7.6c1.1,2.8,1.7,5.7,1.7,8.7c0,2.9-0.5,5.8-1.6,8.6c-1.1,2.8-2.6,5.3-4.5,7.5
			c-2,2.2-4.3,4-7,5.3c-2.7,1.3-5.8,2-9.1,2h-14.9v23.1c0,1.4-0.7,2.1-2.2,2.1h-14.4C742.3,232.1,741.6,231.4,741.6,229.9z
			 M770.9,175.1h-10.5v16.3h10.5c2.4,0,4.3-0.8,5.6-2.5c1.3-1.7,2-3.5,2-5.6c0-1-0.2-2-0.5-2.9c-0.4-1-0.8-1.9-1.5-2.6
			c-0.6-0.8-1.4-1.4-2.3-1.9C773.1,175.4,772.1,175.1,770.9,175.1z"/>
		<path class="st5" d="M806.4,229.6v-67.4c0-0.7,0.2-1.3,0.6-1.8c0.4-0.5,1-0.7,1.9-0.7H821c0.5,0,1.1,0.2,1.7,0.7
			c0.6,0.5,0.9,1.1,0.9,1.8v67.4c0,1.6-0.9,2.4-2.6,2.4h-12.2C807.2,232.1,806.4,231.3,806.4,229.6z"/>
		<path class="st5" d="M883.7,186.6v42.5c0,2-1,2.9-3,2.9h-6.3c-1.8,0-3.1-0.7-3.9-2s-1.4-2.9-2-4.6c-0.6,0.7-1.4,1.4-2.5,2.2
			c-1.1,0.8-2.3,1.6-3.7,2.4c-1.4,0.7-2.8,1.4-4.4,1.9c-1.6,0.5-3.1,0.7-4.7,0.7c-3.7,0-6.8-0.5-9.3-1.5c-2.5-1-4.5-2.5-6-4.5
			c-1.5-2-2.6-4.5-3.2-7.5c-0.6-3-0.9-6.5-0.9-10.6v-21.9c0-0.8,0.2-1.4,0.7-1.9c0.5-0.5,1-0.7,1.8-0.7h12.3c1.6,0,2.4,0.8,2.4,2.4
			v23.3c0,2.3,0.6,4,1.7,5.1c1.1,1.1,2.9,1.7,5.4,1.7c0.7,0,1.5-0.1,2.4-0.4c0.9-0.3,1.8-0.7,2.6-1.3c0.8-0.6,1.6-1.2,2.1-2
			s0.9-1.7,1-2.7v-23.6c0-0.8,0.2-1.4,0.5-1.8c0.4-0.4,1.1-0.6,2.1-0.6h12.1c0.9,0,1.6,0.2,2,0.7
			C883.5,185.3,883.7,185.9,883.7,186.6z"/>
		<path class="st5" d="M904,215.5c3.1,2.5,5.8,3.8,8,3.8c1.6,0,2.9-0.1,4-0.4c1.1-0.3,1.7-0.9,1.7-1.8c0-0.9-0.6-1.6-1.8-2.1
			c-1.2-0.5-2.8-1-4.9-1.6c-3.2-0.8-5.9-1.8-8-2.9c-2.2-1.1-3.9-2.3-5.3-3.7c-1.3-1.4-2.3-2.8-2.8-4.4c-0.6-1.6-0.8-3.3-0.8-5.1
			c0-2.1,0.5-4,1.5-5.7c1-1.7,2.4-3.2,4.1-4.4c1.8-1.2,3.8-2.2,6.2-2.8c2.4-0.6,5-1,7.8-1c3.4,0,6.5,0.4,9.5,1.2
			c2.9,0.8,5.7,2.4,8.2,4.9c0.3,0.5,0.5,0.9,0.5,1.3c0,0.6-0.3,1.2-1,1.8c-0.3,0.3-0.7,0.7-1.3,1.3c-0.6,0.6-1.3,1.3-1.9,2
			c-0.7,0.7-1.3,1.3-1.9,2c-0.6,0.6-1,1.1-1.3,1.3c-0.4,0.4-0.9,0.6-1.5,0.6c-0.7,0-1.4-0.4-2.1-1.1c-0.8-0.8-2-1.5-3.3-1.9
			c-1.4-0.4-2.6-0.6-3.6-0.6c-1,0-2,0.2-2.9,0.7c-0.9,0.5-1.4,1.1-1.4,2c0,0.7,0.2,1.2,0.7,1.5c0.5,0.4,1.1,0.7,1.8,0.9
			c0.7,0.2,1.5,0.4,2.3,0.5c0.8,0.1,1.5,0.3,2.2,0.5c2.4,0.7,4.7,1.5,6.8,2.2c2.1,0.8,3.9,1.7,5.5,2.8s2.8,2.5,3.7,4.1
			c0.9,1.6,1.4,3.7,1.4,6.1c0,2.5-0.6,4.8-1.7,6.7c-1.1,2-2.7,3.6-4.6,4.9c-2,1.3-4.2,2.3-6.9,3s-5.4,1-8.3,1
			c-3.4,0-6.6-0.6-9.8-1.8c-3.1-1.2-5.9-3.1-8.3-5.7c-0.7-0.6-1-1.3-1-2c0-0.6,0.3-1.1,0.8-1.7l6.4-6.7c0.3-0.3,0.5-0.4,0.7-0.5
			c0.2-0.1,0.4-0.1,0.6-0.2c0.3,0,0.6,0.1,0.9,0.3C903.3,214.9,903.6,215.2,904,215.5z"/>
	</g>
	<g class="st2">
		<path class="st0" d="M488.4,254.7c0,0.6-0.2,1.1-0.6,1.5c-0.4,0.4-0.9,0.6-1.5,0.6c-0.6,0-1.1-0.2-1.5-0.6c-0.4-0.4-0.6-1-0.6-1.7
			c0-0.7,0.1-1.4,0.2-1.9c0.2-0.5,0.3-1,0.5-1.3c0.2-0.4,0.4-0.6,0.6-0.8c0.2-0.2,0.4-0.3,0.5-0.3c0.2,0,0.3,0,0.4,0.1l0.6,0.5
			c0.1,0.1,0.1,0.2,0.1,0.3c0,0.2,0,0.3-0.1,0.3l-0.1,0.3c-0.1,0.1-0.1,0.2-0.2,0.3c-0.1,0.1-0.1,0.3-0.1,0.5
			c0.5,0.1,0.9,0.3,1.2,0.7C488.3,253.8,488.4,254.2,488.4,254.7z M494.4,254.7c0,0.6-0.2,1.1-0.6,1.5c-0.4,0.4-0.9,0.6-1.5,0.6
			c-0.6,0-1.1-0.2-1.5-0.6c-0.4-0.4-0.6-1-0.6-1.7c0-0.7,0.1-1.4,0.2-1.9c0.2-0.5,0.3-1,0.5-1.3c0.2-0.4,0.4-0.6,0.6-0.8
			c0.2-0.2,0.4-0.3,0.5-0.3c0.2,0,0.3,0,0.4,0.1l0.6,0.5c0.1,0.1,0.1,0.2,0.1,0.3c0,0.2,0,0.3-0.1,0.3l-0.1,0.3
			c-0.1,0.1-0.1,0.2-0.2,0.3c-0.1,0.1-0.1,0.3-0.1,0.5c0.5,0.1,0.9,0.3,1.2,0.7C494.3,253.8,494.4,254.2,494.4,254.7z"/>
		<path class="st0" d="M497.9,271.3v-20.1c0-0.4,0.2-0.6,0.6-0.6h3.1c0.4,0,0.5,0.2,0.5,0.6v20.1c0,0.4-0.2,0.6-0.5,0.6h-3.1
			C498.1,271.9,497.9,271.7,497.9,271.3z"/>
		<path class="st0" d="M509.2,257.8c0.3,0,0.5,0,0.6,0.1c0.1,0.1,0.3,0.2,0.3,0.4c0.1,0.2,0.1,0.4,0.2,0.6c0,0.2,0.1,0.5,0.1,0.7
			c0.4-0.5,1-1,1.8-1.4s1.6-0.6,2.5-0.6c0.9,0,1.7,0.1,2.4,0.4s1.3,0.7,1.8,1.2c0.5,0.5,0.8,1.1,1.1,1.8c0.2,0.7,0.4,1.5,0.4,2.3
			v7.9c0,0.3-0.1,0.4-0.2,0.5c-0.1,0.1-0.3,0.1-0.5,0.1h-2.6c-0.3,0-0.5,0-0.6-0.1s-0.1-0.3-0.1-0.5V264c0-0.8-0.2-1.4-0.7-1.9
			c-0.5-0.5-1.1-0.7-1.9-0.7c-0.3,0-0.6,0.1-1,0.2c-0.3,0.1-0.6,0.3-0.9,0.5s-0.5,0.5-0.7,0.8s-0.3,0.6-0.4,1v7.4
			c0,0.2,0,0.4-0.1,0.5s-0.3,0.1-0.6,0.1h-2.6c-0.3,0-0.5,0-0.6-0.1s-0.1-0.3-0.1-0.5v-12.6c0-0.6,0.3-0.9,0.9-0.9H509.2z"/>
		<path class="st0" d="M530.8,268.6c0.6,0,1.1-0.1,1.5-0.3s0.9-0.3,1.3-0.5c0.2-0.1,0.3-0.1,0.4-0.1c0.1,0,0.3,0.1,0.4,0.3l1.2,1.8
			c0.1,0.2,0.1,0.3,0.1,0.3c0,0.2-0.1,0.3-0.2,0.4c-0.1,0.1-0.2,0.2-0.3,0.3c-0.6,0.4-1.3,0.8-2.1,1c-0.7,0.3-1.5,0.4-2.4,0.4
			c-1,0-2-0.2-2.9-0.6c-0.9-0.4-1.7-0.9-2.3-1.6c-0.7-0.7-1.2-1.4-1.6-2.3c-0.4-0.9-0.6-1.8-0.6-2.9s0.2-2,0.6-2.9
			c0.4-0.9,0.9-1.7,1.6-2.4c0.7-0.7,1.4-1.2,2.3-1.6c0.9-0.4,1.8-0.6,2.9-0.6c0.8,0,1.5,0.1,2.2,0.4c0.7,0.2,1.4,0.6,2.1,1h0
			c0.2,0.1,0.3,0.2,0.4,0.3c0.1,0.1,0.1,0.2,0.1,0.4c0,0,0,0.1,0,0.2c0,0.1,0,0.1-0.1,0.2l-1.1,1.9c0,0.1-0.1,0.1-0.2,0.2
			c-0.1,0.1-0.2,0.1-0.3,0.1c-0.1,0-0.2-0.1-0.5-0.2c-0.3-0.3-0.7-0.5-1.2-0.6c-0.5-0.2-0.9-0.2-1.4-0.2c-0.5,0-1,0.1-1.5,0.3
			s-0.9,0.5-1.2,0.8s-0.6,0.8-0.8,1.2s-0.3,1-0.3,1.5c0,1.1,0.3,2,1,2.7C528.9,268.3,529.8,268.6,530.8,268.6z"/>
		<path class="st0" d="M542.5,258.6c0,0.1,0.1,0.3,0.1,0.6s0.1,0.5,0.1,0.6c0.2-0.2,0.4-0.5,0.6-0.7c0.2-0.2,0.5-0.5,0.8-0.7
			c0.3-0.2,0.6-0.4,1-0.5c0.4-0.1,0.7-0.2,1.2-0.2c0.1,0,0.2,0,0.3,0s0.2,0,0.3,0c0.3,0,0.6,0.1,0.9,0.2c0.3,0.1,0.7,0.3,1,0.4
			c0.3,0.2,0.6,0.3,0.8,0.5c0.2,0.2,0.3,0.3,0.3,0.5c0,0.1,0,0.2-0.1,0.4l-1.1,1.9c-0.2,0.3-0.4,0.4-0.6,0.4c-0.1,0-0.2,0-0.3-0.1
			s-0.3-0.1-0.5-0.2c-0.3-0.2-0.5-0.3-0.7-0.4s-0.4-0.1-0.7-0.1c-0.4,0-0.8,0.1-1.1,0.2c-0.3,0.2-0.6,0.4-0.8,0.6
			c-0.2,0.3-0.4,0.6-0.5,0.9c-0.1,0.3-0.2,0.7-0.2,1v7.3c0,0.5-0.3,0.7-0.8,0.7H540c-0.5,0-0.7-0.2-0.7-0.7v-12.6
			c0-0.2,0.1-0.4,0.2-0.6c0.2-0.1,0.3-0.2,0.5-0.2h1.8c0.2,0,0.4,0.1,0.5,0.2C542.4,258.2,542.5,258.4,542.5,258.6z"/>
		<path class="st0" d="M558,268.8c0.4,0,0.8,0,1.2-0.2c0.4-0.1,0.8-0.3,1.2-0.5c0.2-0.1,0.3-0.2,0.4-0.3s0.3-0.1,0.4-0.1
			c0.2,0,0.3,0.1,0.4,0.3l1.1,1.7c0.1,0.2,0.1,0.3,0.1,0.4c0,0.2,0,0.3-0.1,0.4c-0.1,0.1-0.2,0.2-0.3,0.3c-0.6,0.5-1.3,0.8-2,1.1
			c-0.7,0.3-1.5,0.4-2.3,0.4c-1,0-1.9-0.2-2.8-0.6s-1.7-0.9-2.3-1.6c-0.7-0.7-1.2-1.4-1.6-2.3c-0.4-0.9-0.6-1.9-0.6-2.9
			c0-1,0.2-1.9,0.6-2.8c0.4-0.9,0.9-1.7,1.5-2.4c0.7-0.7,1.4-1.2,2.3-1.6c0.9-0.4,1.8-0.6,2.8-0.6c0.9,0,1.8,0.2,2.6,0.5
			c0.8,0.3,1.5,0.8,2.2,1.4c0.6,0.6,1.1,1.3,1.5,2.1c0.4,0.8,0.5,1.6,0.5,2.5c0,0.7-0.1,1.3-0.2,1.6c-0.1,0.3-0.4,0.5-0.8,0.5h-8.9
			c0,0.4,0.2,0.8,0.4,1.1c0.2,0.3,0.5,0.6,0.8,0.8c0.3,0.2,0.6,0.4,1,0.5C557.3,268.7,557.7,268.8,558,268.8z M554.8,263.4h6.2
			c0-0.7-0.3-1.3-0.9-1.8c-0.6-0.5-1.3-0.8-2.2-0.8c-0.3,0-0.7,0.1-1,0.2c-0.3,0.1-0.7,0.3-0.9,0.6s-0.5,0.5-0.7,0.8
			C555,262.7,554.9,263,554.8,263.4z"/>
		<path class="st0" d="M568.9,257.8h1.9c0.2,0,0.3,0.1,0.4,0.2c0.1,0.1,0.2,0.3,0.3,0.5s0.1,0.4,0.2,0.6c0,0.2,0.1,0.4,0.1,0.6
			c0.4-0.5,0.9-0.9,1.6-1.3c0.6-0.4,1.4-0.6,2.4-0.6c1,0,1.8,0.2,2.6,0.6c0.7,0.4,1.3,1,1.7,1.6c0.5-0.7,1.1-1.2,1.9-1.6
			c0.8-0.4,1.6-0.6,2.5-0.6c1,0,1.8,0.2,2.5,0.5c0.7,0.3,1.2,0.7,1.7,1.3s0.8,1.2,1,1.9c0.2,0.7,0.3,1.5,0.4,2.3v1.3v6.3
			c0,0.3-0.1,0.4-0.2,0.5c-0.2,0.1-0.4,0.1-0.6,0.1h-2.2c-0.3,0-0.5,0-0.7-0.1c-0.2-0.1-0.2-0.3-0.2-0.5v-7.3c0-0.7-0.2-1.3-0.5-1.8
			c-0.3-0.5-0.8-0.7-1.5-0.7c-0.3,0-0.7,0.1-1,0.2c-0.3,0.1-0.6,0.3-0.9,0.5s-0.5,0.5-0.7,0.8c-0.2,0.3-0.3,0.6-0.3,1v7.3
			c0,0.3-0.1,0.4-0.2,0.5s-0.4,0.1-0.6,0.1h-2.4c-0.3,0-0.5,0-0.6-0.1s-0.2-0.3-0.2-0.5v-7.4c0-0.8-0.2-1.4-0.6-1.8
			c-0.4-0.4-0.9-0.6-1.6-0.6c-0.3,0-0.7,0.1-1,0.2c-0.3,0.1-0.6,0.3-0.9,0.5c-0.3,0.2-0.5,0.5-0.6,0.8c-0.2,0.3-0.2,0.6-0.2,1v7.4
			c0,0.4-0.2,0.6-0.7,0.6h-2.5c-0.5,0-0.8-0.2-0.8-0.6v-12.6c0-0.3,0.1-0.5,0.3-0.6C568.5,257.9,568.7,257.8,568.9,257.8z"/>
		<path class="st0" d="M599.5,268.8c0.4,0,0.8,0,1.2-0.2c0.4-0.1,0.8-0.3,1.2-0.5c0.2-0.1,0.3-0.2,0.4-0.3s0.3-0.1,0.4-0.1
			c0.2,0,0.3,0.1,0.4,0.3l1.1,1.7c0.1,0.2,0.1,0.3,0.1,0.4c0,0.2,0,0.3-0.1,0.4c-0.1,0.1-0.2,0.2-0.3,0.3c-0.6,0.5-1.3,0.8-2,1.1
			c-0.7,0.3-1.5,0.4-2.3,0.4c-1,0-1.9-0.2-2.8-0.6s-1.7-0.9-2.3-1.6c-0.7-0.7-1.2-1.4-1.6-2.3c-0.4-0.9-0.6-1.9-0.6-2.9
			c0-1,0.2-1.9,0.6-2.8c0.4-0.9,0.9-1.7,1.5-2.4c0.7-0.7,1.4-1.2,2.3-1.6c0.9-0.4,1.8-0.6,2.8-0.6c0.9,0,1.8,0.2,2.6,0.5
			c0.8,0.3,1.5,0.8,2.2,1.4c0.6,0.6,1.1,1.3,1.5,2.1c0.4,0.8,0.5,1.6,0.5,2.5c0,0.7-0.1,1.3-0.2,1.6c-0.1,0.3-0.4,0.5-0.8,0.5h-8.9
			c0,0.4,0.2,0.8,0.4,1.1c0.2,0.3,0.5,0.6,0.8,0.8c0.3,0.2,0.6,0.4,1,0.5C598.8,268.7,599.2,268.8,599.5,268.8z M596.3,263.4h6.2
			c0-0.7-0.3-1.3-0.9-1.8c-0.6-0.5-1.3-0.8-2.2-0.8c-0.3,0-0.7,0.1-1,0.2c-0.3,0.1-0.7,0.3-0.9,0.6s-0.5,0.5-0.7,0.8
			C596.4,262.7,596.3,263,596.3,263.4z"/>
		<path class="st0" d="M612.1,257.8c0.3,0,0.5,0,0.6,0.1c0.1,0.1,0.3,0.2,0.3,0.4c0.1,0.2,0.1,0.4,0.2,0.6s0.1,0.5,0.1,0.7
			c0.4-0.5,1-1,1.8-1.4c0.7-0.4,1.6-0.6,2.5-0.6c0.9,0,1.7,0.1,2.4,0.4s1.3,0.7,1.8,1.2c0.5,0.5,0.8,1.1,1.1,1.8
			c0.2,0.7,0.4,1.5,0.4,2.3v7.9c0,0.3-0.1,0.4-0.2,0.5c-0.1,0.1-0.3,0.1-0.5,0.1H620c-0.3,0-0.5,0-0.6-0.1c-0.1-0.1-0.1-0.3-0.1-0.5
			V264c0-0.8-0.2-1.4-0.7-1.9s-1.1-0.7-1.9-0.7c-0.3,0-0.6,0.1-1,0.2c-0.3,0.1-0.6,0.3-0.9,0.5c-0.3,0.2-0.5,0.5-0.7,0.8
			c-0.2,0.3-0.3,0.6-0.4,1v7.4c0,0.2,0,0.4-0.1,0.5s-0.3,0.1-0.6,0.1h-2.6c-0.3,0-0.5,0-0.6-0.1c-0.1-0.1-0.1-0.3-0.1-0.5v-12.6
			c0-0.6,0.3-0.9,0.9-0.9H612.1z"/>
		<path class="st0" d="M627.8,253.9c0-0.5,0.3-0.8,0.9-0.8l2.1-0.3c0,0,0.1,0,0.2,0c0.3,0,0.4,0.1,0.5,0.2c0.1,0.2,0.1,0.4,0.1,0.6
			v4.2h1.7c0.2,0,0.4,0.1,0.6,0.2s0.2,0.3,0.2,0.6v1.6c0,0.3-0.1,0.5-0.2,0.7s-0.3,0.2-0.6,0.2h-1.7v10c0,0.3-0.1,0.5-0.2,0.6
			c-0.1,0.1-0.3,0.2-0.6,0.2h-2.4c-0.3,0-0.5-0.1-0.6-0.2s-0.1-0.3-0.1-0.6v-10H627c-0.6,0-0.8-0.3-0.8-0.9v-1.6
			c0-0.6,0.3-0.8,0.8-0.8h0.8V253.9z"/>
		<path class="st0" d="M659.1,259l-7,17.9c-0.2,0.4-0.5,0.6-0.9,0.6h-2.3c-0.2,0-0.4,0-0.6-0.1c-0.2-0.1-0.2-0.2-0.2-0.5
			c0-0.1,0-0.2,0.1-0.4l1.8-4.8l-5.2-12.8c-0.1-0.1-0.1-0.2-0.1-0.3s0-0.1,0-0.2c0-0.4,0.3-0.6,0.8-0.6h2.5c0.2,0,0.4,0.1,0.6,0.2
			s0.3,0.3,0.3,0.5l3.1,8.4l3.1-8.4c0.1-0.4,0.4-0.6,0.9-0.6h2.5c0.3,0,0.5,0.1,0.6,0.2c0.1,0.1,0.2,0.3,0.2,0.5
			C659.2,258.6,659.2,258.8,659.1,259z"/>
		<path class="st0" d="M660.7,264.9c0-1,0.2-2,0.6-2.9c0.4-0.9,0.9-1.7,1.6-2.4c0.7-0.7,1.5-1.2,2.4-1.6c0.9-0.4,1.9-0.6,2.9-0.6
			s2,0.2,2.9,0.6c0.9,0.4,1.7,0.9,2.4,1.6c0.7,0.7,1.2,1.5,1.6,2.4c0.4,0.9,0.6,1.9,0.6,2.9s-0.2,2-0.6,2.9
			c-0.4,0.9-0.9,1.7-1.6,2.3c-0.7,0.7-1.5,1.2-2.4,1.6c-0.9,0.4-1.9,0.6-2.9,0.6s-2-0.2-2.9-0.6c-0.9-0.4-1.7-0.9-2.4-1.6
			c-0.7-0.7-1.2-1.4-1.6-2.3C660.9,266.8,660.7,265.9,660.7,264.9z M664.5,264.9c0,0.5,0.1,1,0.3,1.4s0.4,0.8,0.8,1.2
			c0.3,0.3,0.7,0.6,1.1,0.8c0.4,0.2,0.9,0.3,1.4,0.3s1-0.1,1.4-0.3c0.4-0.2,0.8-0.5,1.1-0.8c0.3-0.3,0.6-0.7,0.8-1.2
			s0.3-0.9,0.3-1.4s-0.1-1-0.3-1.4s-0.4-0.8-0.8-1.2c-0.3-0.3-0.7-0.6-1.1-0.8c-0.4-0.2-0.9-0.3-1.4-0.3s-1,0.1-1.4,0.3
			c-0.4,0.2-0.8,0.5-1.1,0.8c-0.3,0.3-0.6,0.7-0.8,1.2S664.5,264.4,664.5,264.9z"/>
		<path class="st0" d="M689.4,271.9c-0.3,0-0.5,0-0.7-0.1s-0.3-0.2-0.3-0.4c-0.1-0.2-0.1-0.3-0.2-0.5c0-0.2-0.1-0.4-0.2-0.7
			c-0.4,0.5-1.1,0.9-1.9,1.3c-0.8,0.4-1.7,0.6-2.6,0.6c-0.9,0-1.7-0.1-2.3-0.4c-0.7-0.3-1.2-0.7-1.7-1.2s-0.8-1.1-1-1.8
			s-0.3-1.4-0.3-2.3v-7.7c0-0.3,0.1-0.5,0.2-0.6c0.2-0.2,0.4-0.2,0.6-0.2h2.4c0.3,0,0.5,0.1,0.6,0.2c0.1,0.1,0.2,0.3,0.2,0.6v7.1
			c0,0.8,0.2,1.4,0.7,1.9s1,0.7,1.8,0.7c0.3,0,0.7-0.1,1-0.2s0.7-0.3,1.1-0.5c0.3-0.2,0.6-0.5,0.8-0.8c0.2-0.3,0.3-0.6,0.3-1v-7.2
			c0-0.5,0.3-0.8,0.8-0.8h2.3c0.3,0,0.5,0.1,0.6,0.2s0.2,0.3,0.2,0.6V271c0,0.6-0.3,0.9-0.9,0.9H689.4z"/>
		<path class="st0" d="M698.1,258.6c0,0.1,0.1,0.3,0.1,0.6c0.1,0.3,0.1,0.5,0.1,0.6c0.2-0.2,0.4-0.5,0.6-0.7
			c0.2-0.2,0.5-0.5,0.8-0.7s0.6-0.4,1-0.5c0.4-0.1,0.7-0.2,1.2-0.2c0.1,0,0.2,0,0.3,0s0.2,0,0.3,0c0.3,0,0.6,0.1,0.9,0.2
			c0.3,0.1,0.7,0.3,1,0.4c0.3,0.2,0.6,0.3,0.8,0.5c0.2,0.2,0.3,0.3,0.3,0.5c0,0.1,0,0.2-0.1,0.4l-1.1,1.9c-0.2,0.3-0.4,0.4-0.6,0.4
			c-0.1,0-0.2,0-0.3-0.1c-0.2-0.1-0.3-0.1-0.5-0.2c-0.3-0.2-0.5-0.3-0.7-0.4c-0.2-0.1-0.4-0.1-0.7-0.1c-0.4,0-0.8,0.1-1.1,0.2
			c-0.3,0.2-0.6,0.4-0.8,0.6c-0.2,0.3-0.4,0.6-0.5,0.9c-0.1,0.3-0.2,0.7-0.2,1v7.3c0,0.5-0.3,0.7-0.8,0.7h-2.4
			c-0.5,0-0.7-0.2-0.7-0.7v-12.6c0-0.2,0.1-0.4,0.2-0.6c0.2-0.1,0.3-0.2,0.5-0.2h1.8c0.2,0,0.4,0.1,0.5,0.2
			C698,258.2,698.1,258.4,698.1,258.6z"/>
		<path class="st0" d="M717.6,271.3v-20.1c0-0.4,0.2-0.6,0.5-0.6h8.3c1,0,1.9,0.2,2.7,0.6c0.8,0.4,1.5,0.9,2.1,1.5s1.1,1.4,1.4,2.2
			c0.3,0.8,0.5,1.7,0.5,2.6s-0.2,1.7-0.5,2.5c-0.3,0.8-0.8,1.5-1.4,2.2c-0.6,0.6-1.3,1.1-2.1,1.5s-1.7,0.6-2.7,0.6h-4.7v7.1
			c0,0.4-0.2,0.6-0.6,0.6h-3C717.8,271.9,717.6,271.7,717.6,271.3z M725.7,254.2h-3.9v6.4h3.9c1,0,1.7-0.3,2.3-0.9s0.9-1.4,0.9-2.3
			c0-0.4-0.1-0.9-0.2-1.2c-0.2-0.4-0.4-0.7-0.7-1s-0.6-0.5-1-0.7S726.1,254.2,725.7,254.2z"/>
		<path class="st0" d="M738.8,258.6c0,0.1,0.1,0.3,0.1,0.6c0.1,0.3,0.1,0.5,0.1,0.6c0.2-0.2,0.4-0.5,0.6-0.7
			c0.2-0.2,0.5-0.5,0.8-0.7s0.6-0.4,1-0.5c0.4-0.1,0.7-0.2,1.2-0.2c0.1,0,0.2,0,0.3,0s0.2,0,0.3,0c0.3,0,0.6,0.1,0.9,0.2
			c0.3,0.1,0.7,0.3,1,0.4c0.3,0.2,0.6,0.3,0.8,0.5c0.2,0.2,0.3,0.3,0.3,0.5c0,0.1,0,0.2-0.1,0.4l-1.1,1.9c-0.2,0.3-0.4,0.4-0.6,0.4
			c-0.1,0-0.2,0-0.3-0.1c-0.2-0.1-0.3-0.1-0.5-0.2c-0.3-0.2-0.5-0.3-0.7-0.4c-0.2-0.1-0.4-0.1-0.7-0.1c-0.4,0-0.8,0.1-1.1,0.2
			c-0.3,0.2-0.6,0.4-0.8,0.6c-0.2,0.3-0.4,0.6-0.5,0.9c-0.1,0.3-0.2,0.7-0.2,1v7.3c0,0.5-0.3,0.7-0.8,0.7h-2.4
			c-0.5,0-0.7-0.2-0.7-0.7v-12.6c0-0.2,0.1-0.4,0.2-0.6c0.2-0.1,0.3-0.2,0.5-0.2h1.8c0.2,0,0.4,0.1,0.5,0.2
			C738.6,258.2,738.7,258.4,738.8,258.6z"/>
		<path class="st0" d="M746.6,264.9c0-1,0.2-2,0.6-2.9c0.4-0.9,0.9-1.7,1.6-2.4c0.7-0.7,1.5-1.2,2.4-1.6c0.9-0.4,1.9-0.6,2.9-0.6
			c1,0,2,0.2,2.9,0.6c0.9,0.4,1.7,0.9,2.4,1.6c0.7,0.7,1.2,1.5,1.6,2.4c0.4,0.9,0.6,1.9,0.6,2.9s-0.2,2-0.6,2.9
			c-0.4,0.9-0.9,1.7-1.6,2.3c-0.7,0.7-1.5,1.2-2.4,1.6c-0.9,0.4-1.9,0.6-2.9,0.6c-1,0-2-0.2-2.9-0.6c-0.9-0.4-1.7-0.9-2.4-1.6
			c-0.7-0.7-1.2-1.4-1.6-2.3S746.6,265.9,746.6,264.9z M750.4,264.9c0,0.5,0.1,1,0.3,1.4s0.4,0.8,0.8,1.2c0.3,0.3,0.7,0.6,1.1,0.8
			c0.4,0.2,0.9,0.3,1.4,0.3c0.5,0,1-0.1,1.4-0.3c0.4-0.2,0.8-0.5,1.1-0.8c0.3-0.3,0.6-0.7,0.8-1.2c0.2-0.4,0.3-0.9,0.3-1.4
			s-0.1-1-0.3-1.4c-0.2-0.4-0.5-0.8-0.8-1.2c-0.3-0.3-0.7-0.6-1.1-0.8c-0.4-0.2-0.9-0.3-1.4-0.3c-0.5,0-1,0.1-1.4,0.3
			c-0.4,0.2-0.8,0.5-1.1,0.8c-0.3,0.3-0.6,0.7-0.8,1.2S750.4,264.4,750.4,264.9z"/>
		<path class="st0" d="M777.7,251.3v19.9c0,0.5-0.2,0.7-0.7,0.7h-1.3c-0.4,0-0.7,0-1-0.1c-0.3-0.1-0.4-0.3-0.5-0.6
			c-0.1-0.3-0.1-0.7-0.2-1c-0.5,0.7-1,1.2-1.6,1.5c-0.6,0.3-1.4,0.5-2.3,0.5c-1,0-1.9-0.2-2.7-0.6c-0.8-0.4-1.5-0.9-2.1-1.5
			s-1.1-1.4-1.4-2.3s-0.5-1.8-0.5-2.8c0-1,0.2-2,0.5-2.8s0.8-1.6,1.4-2.3c0.6-0.7,1.3-1.2,2.1-1.6s1.8-0.6,2.8-0.6
			c0.9,0,1.6,0.2,2.2,0.5c0.5,0.3,1,0.7,1.4,1.2v-8c0-0.5,0.2-0.7,0.7-0.7h2.4c0.2,0,0.4,0.1,0.6,0.2
			C777.6,250.9,777.7,251.1,777.7,251.3z M774.1,264.9c0-0.5-0.1-1-0.3-1.5s-0.4-0.9-0.7-1.2c-0.3-0.3-0.7-0.6-1.1-0.8
			c-0.4-0.2-0.9-0.3-1.4-0.3c-0.5,0-1,0.1-1.4,0.3c-0.4,0.2-0.8,0.5-1.1,0.8c-0.3,0.3-0.5,0.8-0.7,1.2s-0.2,1-0.2,1.5
			c0,0.5,0.1,1,0.2,1.5s0.4,0.9,0.7,1.2c0.3,0.3,0.6,0.6,1.1,0.8c0.4,0.2,0.9,0.3,1.4,0.3c0.5,0,1-0.1,1.4-0.3s0.8-0.5,1.1-0.8
			c0.3-0.3,0.5-0.7,0.7-1.2S774.1,265.5,774.1,264.9L774.1,264.9z"/>
		<path class="st0" d="M791.9,271.9c-0.3,0-0.5,0-0.7-0.1s-0.3-0.2-0.3-0.4c-0.1-0.2-0.1-0.3-0.2-0.5c0-0.2-0.1-0.4-0.2-0.7
			c-0.4,0.5-1.1,0.9-1.9,1.3c-0.8,0.4-1.7,0.6-2.6,0.6c-0.9,0-1.7-0.1-2.3-0.4c-0.7-0.3-1.2-0.7-1.7-1.2s-0.8-1.1-1-1.8
			s-0.3-1.4-0.3-2.3v-7.7c0-0.3,0.1-0.5,0.2-0.6c0.2-0.2,0.4-0.2,0.6-0.2h2.4c0.3,0,0.5,0.1,0.6,0.2c0.1,0.1,0.2,0.3,0.2,0.6v7.1
			c0,0.8,0.2,1.4,0.7,1.9s1,0.7,1.8,0.7c0.3,0,0.7-0.1,1-0.2s0.7-0.3,1.1-0.5c0.3-0.2,0.6-0.5,0.8-0.8c0.2-0.3,0.3-0.6,0.3-1v-7.2
			c0-0.5,0.3-0.8,0.8-0.8h2.3c0.3,0,0.5,0.1,0.6,0.2s0.2,0.3,0.2,0.6V271c0,0.6-0.3,0.9-0.9,0.9H791.9z"/>
		<path class="st0" d="M803.6,268.6c0.6,0,1.1-0.1,1.5-0.3s0.9-0.3,1.3-0.5c0.2-0.1,0.3-0.1,0.4-0.1c0.1,0,0.3,0.1,0.4,0.3l1.2,1.8
			c0.1,0.2,0.1,0.3,0.1,0.3c0,0.2-0.1,0.3-0.2,0.4c-0.1,0.1-0.2,0.2-0.3,0.3c-0.6,0.4-1.3,0.8-2.1,1c-0.7,0.3-1.5,0.4-2.4,0.4
			c-1,0-2-0.2-2.9-0.6c-0.9-0.4-1.7-0.9-2.3-1.6c-0.7-0.7-1.2-1.4-1.6-2.3c-0.4-0.9-0.6-1.8-0.6-2.9s0.2-2,0.6-2.9
			c0.4-0.9,0.9-1.7,1.6-2.4c0.7-0.7,1.4-1.2,2.3-1.6c0.9-0.4,1.8-0.6,2.9-0.6c0.8,0,1.5,0.1,2.2,0.4c0.7,0.2,1.4,0.6,2.1,1h0
			c0.2,0.1,0.3,0.2,0.4,0.3c0.1,0.1,0.1,0.2,0.1,0.4c0,0,0,0.1,0,0.2c0,0.1,0,0.1-0.1,0.2l-1.1,1.9c0,0.1-0.1,0.1-0.2,0.2
			c-0.1,0.1-0.2,0.1-0.3,0.1c-0.1,0-0.2-0.1-0.5-0.2c-0.3-0.3-0.7-0.5-1.2-0.6c-0.5-0.2-0.9-0.2-1.4-0.2c-0.5,0-1,0.1-1.5,0.3
			s-0.9,0.5-1.2,0.8s-0.6,0.8-0.8,1.2s-0.3,1-0.3,1.5c0,1.1,0.3,2,1,2.7C801.7,268.3,802.6,268.6,803.6,268.6z"/>
		<path class="st0" d="M812.3,253.9c0-0.5,0.3-0.8,0.9-0.8l2.1-0.3c0,0,0.1,0,0.2,0c0.3,0,0.4,0.1,0.5,0.2s0.1,0.4,0.1,0.6v4.2h1.7
			c0.2,0,0.4,0.1,0.6,0.2s0.2,0.3,0.2,0.6v1.6c0,0.3-0.1,0.5-0.2,0.7s-0.3,0.2-0.6,0.2h-1.7v10c0,0.3-0.1,0.5-0.2,0.6
			c-0.1,0.1-0.3,0.2-0.6,0.2H813c-0.3,0-0.5-0.1-0.6-0.2c-0.1-0.1-0.1-0.3-0.1-0.6v-10h-0.8c-0.6,0-0.8-0.3-0.8-0.9v-1.6
			c0-0.6,0.3-0.8,0.8-0.8h0.8V253.9z"/>
		<path class="st0" d="M821,253.6c0-0.6,0.2-1.1,0.6-1.6c0.4-0.4,1-0.6,1.6-0.6c0.6,0,1.2,0.2,1.6,0.6c0.4,0.4,0.6,1,0.6,1.6
			c0,0.6-0.2,1.1-0.6,1.5s-0.9,0.6-1.6,0.6c-0.6,0-1.1-0.2-1.6-0.6C821.2,254.7,821,254.2,821,253.6z M825.2,258.5v12.7
			c0,0.4-0.2,0.7-0.7,0.7H822c-0.4,0-0.7-0.2-0.7-0.7v-12.7c0-0.2,0.1-0.4,0.2-0.5c0.1-0.1,0.3-0.2,0.5-0.2h2.5
			c0.2,0,0.3,0.1,0.5,0.2C825.2,258.1,825.2,258.3,825.2,258.5z"/>
		<path class="st0" d="M832.3,258.4l2.8,7.9l2.8-7.9c0.2-0.4,0.5-0.6,1-0.6h2.6c0.5,0,0.8,0.2,0.8,0.7c0,0.1,0,0.2,0,0.2
			c0,0.1,0,0.1,0,0.1l-5,12.2c-0.1,0.2-0.2,0.4-0.4,0.6c-0.2,0.2-0.4,0.3-0.6,0.3h-2.1c-0.3,0-0.6-0.1-0.7-0.4
			c-0.2-0.2-0.3-0.5-0.4-0.8l-2.4-5.8c-0.4-1-0.8-2-1.2-3c-0.4-1-0.8-2-1.2-3c0-0.1,0-0.1-0.1-0.2c0-0.1,0-0.2,0-0.3
			c0-0.4,0.2-0.6,0.7-0.6h2.6C831.8,257.8,832.2,258,832.3,258.4z"/>
		<path class="st0" d="M844.4,253.6c0-0.6,0.2-1.1,0.6-1.6c0.4-0.4,1-0.6,1.6-0.6c0.6,0,1.2,0.2,1.6,0.6c0.4,0.4,0.6,1,0.6,1.6
			c0,0.6-0.2,1.1-0.6,1.5c-0.4,0.4-0.9,0.6-1.6,0.6c-0.6,0-1.1-0.2-1.6-0.6S844.4,254.2,844.4,253.6z M848.6,258.5v12.7
			c0,0.4-0.2,0.7-0.7,0.7h-2.5c-0.4,0-0.7-0.2-0.7-0.7v-12.7c0-0.2,0.1-0.4,0.2-0.5c0.1-0.1,0.3-0.2,0.5-0.2h2.5
			c0.2,0,0.3,0.1,0.5,0.2C848.6,258.1,848.6,258.3,848.6,258.5z"/>
		<path class="st0" d="M853.3,253.9c0-0.5,0.3-0.8,0.9-0.8l2.1-0.3c0,0,0.1,0,0.2,0c0.3,0,0.4,0.1,0.5,0.2c0.1,0.2,0.1,0.4,0.1,0.6
			v4.2h1.7c0.2,0,0.4,0.1,0.6,0.2s0.2,0.3,0.2,0.6v1.6c0,0.3-0.1,0.5-0.2,0.7s-0.3,0.2-0.6,0.2h-1.7v10c0,0.3-0.1,0.5-0.2,0.6
			c-0.1,0.1-0.3,0.2-0.6,0.2H854c-0.3,0-0.5-0.1-0.6-0.2s-0.1-0.3-0.1-0.6v-10h-0.8c-0.6,0-0.8-0.3-0.8-0.9v-1.6
			c0-0.6,0.3-0.8,0.8-0.8h0.8V253.9z"/>
		<path class="st0" d="M876.7,259l-7,17.9c-0.2,0.4-0.5,0.6-0.9,0.6h-2.3c-0.2,0-0.4,0-0.6-0.1c-0.2-0.1-0.2-0.2-0.2-0.5
			c0-0.1,0-0.2,0.1-0.4l1.8-4.8l-5.2-12.8c-0.1-0.1-0.1-0.2-0.1-0.3c0-0.1,0-0.1,0-0.2c0-0.4,0.3-0.6,0.8-0.6h2.5
			c0.2,0,0.4,0.1,0.6,0.2c0.2,0.1,0.3,0.3,0.3,0.5l3.1,8.4l3.1-8.4c0.1-0.4,0.4-0.6,0.9-0.6h2.5c0.3,0,0.5,0.1,0.6,0.2
			c0.1,0.1,0.2,0.3,0.2,0.5C876.8,258.6,876.8,258.8,876.7,259z"/>
		<path class="st0" d="M879.3,251.5c0-0.6,0.2-1.1,0.6-1.5c0.4-0.4,0.9-0.6,1.5-0.6c0.6,0,1.1,0.2,1.5,0.6c0.4,0.4,0.6,1,0.6,1.7
			c0,0.7-0.1,1.3-0.2,1.9s-0.3,1-0.5,1.3c-0.2,0.4-0.4,0.6-0.6,0.8s-0.4,0.3-0.5,0.3c-0.2,0-0.3,0-0.4-0.1l-0.6-0.5
			c-0.1-0.1-0.1-0.2-0.1-0.3c0-0.1,0-0.2,0.1-0.3l0.2-0.2c0.1-0.1,0.1-0.2,0.2-0.3c0.1-0.1,0.1-0.3,0.1-0.5
			c-0.5-0.1-0.9-0.3-1.2-0.7S879.3,252,879.3,251.5z M884.7,251.5c0-0.6,0.2-1.1,0.6-1.5c0.4-0.4,0.9-0.6,1.5-0.6
			c0.6,0,1.1,0.2,1.5,0.6c0.4,0.4,0.6,1,0.6,1.7c0,0.7-0.1,1.3-0.2,1.9c-0.2,0.5-0.3,1-0.5,1.3c-0.2,0.4-0.4,0.6-0.6,0.8
			c-0.2,0.2-0.4,0.3-0.5,0.3c-0.2,0-0.3,0-0.4-0.1l-0.6-0.5c-0.1-0.1-0.1-0.2-0.1-0.3c0-0.1,0-0.2,0.1-0.3l0.2-0.2
			c0.1-0.1,0.1-0.2,0.2-0.3c0.1-0.1,0.1-0.3,0.1-0.5c-0.5-0.1-0.9-0.3-1.2-0.7C884.9,252.5,884.7,252,884.7,251.5z"/>
	</g>
</g>
</svg>
