<svg xmlns="http://www.w3.org/2000/svg" viewBox="0 0 810.51 418.05"><defs><style>.cls-1,.cls-3,.cls-7,.cls-9{fill:#783819;}.cls-2{fill:#fff;}.cls-3{isolation:isolate;}.cls-3,.cls-6{font-size:178.4px;font-family:ClarendonBT-Bold, Clarendon BT;}.cls-3,.cls-6,.cls-9{font-weight:700;}.cls-4{fill:#d28729;}.cls-5,.cls-6{fill:#cb9866;}.cls-7{font-size:102.37px;font-family:CocoGothic-Heavy, Coco Gothic;font-weight:800;}.cls-8{fill:#9c6237;font-size:97.52px;}.cls-9{font-size:32.98px;font-family:CocoGothic-Bold, Coco Gothic;}.cls-10{letter-spacing:-0.04em;}.cls-11{letter-spacing:0.04em;}</style></defs><title>SVG_LOGO_VERTICAL_Asset 10</title><g id="Layer_2" data-name="Layer 2"><g id="Layer_1-2" data-name="Layer 1"><g id="logo"><g id="Layer_1-2-2" data-name="Layer 1-2"><path class="cls-1" d="M388.47,204a105.13,105.13,0,1,1-2.11-90.86L344.09,131,322.6,184.77Z"/><path class="cls-2" d="M351.24,161.21a92.72,92.72,0,0,1-14.53,33.11,4.38,4.38,0,0,1-3.08,1.54q-38.62.12-77.29,0a4.09,4.09,0,0,1-2.89-1.44,92.92,92.92,0,0,1-5.48-8.8,4,4,0,0,0-4-2.38c-9.65-.15-17.13-4.43-22.22-12.6-6.08-9.76-1.61-20.56,9.35-23,1.73-.38,4.33-.21,5-1.25.77-1.3,0-3.59-.15-5.45-.32-3.86-.32-3.86,3.49-3.86H354.19A105.11,105.11,0,0,1,351.24,161.21Zm-110.87,5.26c-.93-3.51-1.77-7.05-2.45-10.61-.32-1.66-1-2.08-2.58-1.82-7.38,1.21-10.48,8.09-6.27,14.27,3.29,4.84,8.16,7,14.28,7.86-1.08-3.49-2.13-6.57-3-9.7Z"/><ellipse class="cls-2" cx="295.14" cy="137.03" rx="59.05" ry="26.86"/><ellipse class="cls-1" cx="295.31" cy="132.04" rx="43.27" ry="14.76"/><text class="cls-3" transform="translate(366.2 201.15)">+</text><path class="cls-4" d="M280.84,10.48a27,27,0,0,0-4.23,3.44c-3.64,4.52-7.72,8.87-10.42,13.9-3.76,7,.66,13,4.36,18.57,4,6,8.92,11.38,12.61,17.52,3.18,5.29,6.11,11.06,7.51,17a22.07,22.07,0,0,1-5.4,20.42c-.18.2-.12.63-.17,1,.2,0,.45.12.61,0q2.85-1.38,5.67-2.81c6.57-3.28,11.25-12,10.3-19.3-1.27-9.59-6.43-17.21-12.07-24.72a164.83,164.83,0,0,1-13-19.55c-4.64-8.34-1.75-16.06,3.77-23.07a8.54,8.54,0,0,0,1-2S281.07,10.66,280.84,10.48ZM320.5,71.1c.07-6.74-2.4-12.83-6-18.18-4.6-6.78-10.41-12.71-15-19.48a39.11,39.11,0,0,1-5.45-13c-1.73-7.44,2.31-13.39,6.49-19.09.24-.32.17-.87.25-1.32-.4.1-.93.05-1.17.3-3.75,3.7-7.72,7.22-11.12,11.26S283,20.71,285,25.51A83.31,83.31,0,0,0,295.27,43.3c6.13,8.23,12.58,16.08,14.82,26.5,1.65,7.72-.3,14.33-5,20.39a9.13,9.13,0,0,0-.77,1.49,8.88,8.88,0,0,0,1.54-.28C314.53,88.22,320.49,79.94,320.5,71.1Z"/><path class="cls-5" d="M280.84,10.48c.23.18.52.35.5.39a8.94,8.94,0,0,1-1,2c-5.52,7-8.37,14.73-3.78,23.07a166.89,166.89,0,0,0,13,19.55c5.65,7.52,10.81,15.14,12.07,24.71,1,7.26-3.72,16-10.29,19.31-1.89.94-3.78,1.89-5.68,2.8-.15.08-.4,0-.6,0,0-.33,0-.77.16-1a22,22,0,0,0,5.41-20.41c-1.4-5.94-4.34-11.71-7.51-17-3.7-6.18-8.63-11.53-12.61-17.52-3.7-5.56-8.12-11.59-4.36-18.54,2.7-5.05,6.78-9.39,10.41-13.9C277.71,12.54,279.42,11.64,280.84,10.48Z"/><path class="cls-5" d="M320.5,71.1c0,8.88-6,17.16-14.67,20.37a8.88,8.88,0,0,1-1.54.28,9.13,9.13,0,0,1,.77-1.49c4.71-6.06,6.66-12.67,5-20.39-2.21-10.46-8.66-18.3-14.79-26.57A83.11,83.11,0,0,1,285,25.45c-2-4.77.26-9.94,3.54-13.9S295.85,4,299.61.29c.24-.24.77-.2,1.16-.29-.07.45,0,1-.24,1.32C296.36,7,292.3,13,294,20.4a39.25,39.25,0,0,0,5.47,13c4.58,6.76,10.39,12.7,15,19.45C318.1,58.23,320.57,64.32,320.5,71.1Z"/><text class="cls-6" transform="translate(481.72 201.15)">+</text><path class="cls-2" d="M354.19,137s-3.25,74.27-37.7,81.35-48.74-7.25-48.74-7.25Z"/><path class="cls-2" d="M243.25,176.4s9.32,48.49,59,43.94V190L270.52,186s-15.39-5.79-17.16-7.34S243.25,176.4,243.25,176.4Z"/></g></g><text class="cls-7" transform="translate(0 361.53)">Coffee <tspan class="cls-8" x="348.68" y="0">Plus-Plus</tspan></text><text class="cls-9" transform="translate(159.02 405.29)">“Inc<tspan class="cls-10" x="63.08" y="0">r</tspan><tspan x="77.36" y="0">ement your P</tspan><tspan class="cls-10" x="288.61" y="0">r</tspan><tspan x="302.89" y="0">oductivi</tspan><tspan class="cls-11" x="423.81" y="0">t</tspan><tspan x="435.82" y="0">y”</tspan></text></g></g></svg>