<?xml version="1.0" encoding="utf-8"?>
<!-- Generator: Adobe Illustrator 23.0.0, SVG Export Plug-In . SVG Version: 6.00 Build 0)  -->
<svg version="1.1" id="Layer_1" xmlns="http://www.w3.org/2000/svg" xmlns:xlink="http://www.w3.org/1999/xlink" x="0px" y="0px"
	 viewBox="0 0 936.9 277.4" style="enable-background:new 0 0 936.9 277.4;" xml:space="preserve">
<style type="text/css">
	.st0{fill:#773818;}
	.st1{fill:#FFFFFF;}
	.st2{font-family:'ClarendonBT-Bold';}
	.st3{font-size:178.4044px;}
	.st4{fill:#D08629;}
	.st5{fill:#CA9765;}
	.st6{font-family:'CocoGothic-Heavy';}
	.st7{font-size:102.3733px;}
	.st8{fill:#9B6137;}
	.st9{font-size:97.5164px;}
	.st10{font-family:'CocoGothic-Bold';}
	.st11{font-size:28.6892px;}
</style>
<title>SVG_LOGO_HORIZONTALAsset 9</title>
<g>
	<g id="logo_1_">
		<title>SVG_LOGO_Asset 5</title>
		<g>
			<g id="Layer_1-2_2_">
				<path class="st0" d="M201.9,209.5c-23.9,52.9-86.1,76.5-139.1,52.6S-13.6,176,10.3,123.1s86.1-76.5,139.1-52.6
					c21.8,9.8,39.6,26.8,50.5,48.2l-42.3,17.8l-21.5,53.8L201.9,209.5z"/>
				<path class="st1" d="M164.7,166.7c-2.8,11.9-7.4,23.1-14.5,33.1c-0.8,0.9-1.9,1.5-3.1,1.5c-25.7,0.1-51.5,0.1-77.3,0
					c-1.1-0.1-2.2-0.6-2.9-1.4c-2-2.8-3.8-5.8-5.5-8.8c-0.7-1.6-2.3-2.5-4-2.4c-9.7-0.2-17.1-4.4-22.2-12.6
					c-6.1-9.8-1.6-20.6,9.4-23c1.7-0.4,4.3-0.2,5-1.2c0.8-1.3,0-3.6-0.1-5.5c-0.3-3.9-0.3-3.9,3.5-3.9h114.8
					C167.6,150.8,166.6,158.9,164.7,166.7z M53.8,172c-0.9-3.5-1.8-7-2.5-10.6c-0.3-1.7-1-2.1-2.6-1.8c-7.4,1.2-10.5,8.1-6.3,14.3
					c3.3,4.8,8.2,7,14.3,7.9C55.7,178.2,54.7,175.1,53.8,172L53.8,172z"/>
				<ellipse class="st1" cx="108.6" cy="142.6" rx="59" ry="26.9"/>
				<ellipse class="st0" cx="108.8" cy="137.6" rx="43.3" ry="14.8"/>
				<text transform="matrix(1 0 0 1 179.6672 206.6771)" class="st0 st2 st3">+</text>
				<path class="st4" d="M94.3,16c-1.4,1.2-3.1,2.1-4.2,3.4c-3.6,4.5-7.7,8.9-10.4,13.9c-3.8,7,0.7,13,4.4,18.6
					c4,6,8.9,11.4,12.6,17.5c3.2,5.3,6.1,11.1,7.5,17c1.8,7.3-0.3,15-5.4,20.4c-0.2,0.2-0.1,0.6-0.2,1c0.2,0,0.4,0.1,0.6,0
					c1.9-0.9,3.8-1.9,5.7-2.8c6.6-3.3,11.3-12,10.3-19.3c-1.3-9.6-6.4-17.2-12.1-24.7c-4.8-6.2-9.2-12.7-13-19.6
					c-4.6-8.3-1.7-16.1,3.8-23.1c0.4-0.6,0.7-1.3,1-2C94.8,16.4,94.5,16.2,94.3,16z M134,76.6c0.1-6.7-2.4-12.8-6-18.2
					c-4.6-6.8-10.4-12.7-15-19.5c-2.6-4-4.4-8.4-5.5-13c-1.7-7.4,2.3-13.4,6.5-19.1c0.2-0.3,0.2-0.9,0.2-1.3c-0.4,0.1-0.9,0-1.2,0.3
					c-3.8,3.7-7.7,7.2-11.1,11.3s-5.5,9.1-3.5,13.9c2.7,6.3,6.1,12.3,10.3,17.8c6.1,8.2,12.6,16.1,14.8,26.5
					c1.7,7.7-0.3,14.3-5,20.4c-0.3,0.5-0.6,1-0.8,1.5c0.5,0,1-0.1,1.5-0.3C128,93.7,134,85.5,134,76.6z"/>
				<path class="st5" d="M94.3,16c0.2,0.2,0.5,0.3,0.5,0.4c-0.2,0.7-0.6,1.4-1,2c-5.5,7-8.4,14.7-3.8,23.1c3.9,6.8,8.2,13.4,13,19.6
					c5.6,7.5,10.8,15.1,12.1,24.7c1,7.3-3.7,16-10.3,19.3c-1.9,0.9-3.8,1.9-5.7,2.8c-0.2,0.1-0.4,0-0.6,0c0-0.3,0-0.8,0.2-1
					c5.2-5.4,7.2-13.1,5.4-20.4c-1.4-5.9-4.3-11.7-7.5-17C92.9,63.3,88,57.9,84,51.9c-3.7-5.6-8.1-11.6-4.4-18.5
					c2.7-5.1,6.8-9.4,10.4-13.9C91.2,18.1,92.9,17.2,94.3,16z"/>
				<path class="st5" d="M134,76.6c0,8.9-6,17.2-14.7,20.4c-0.5,0.1-1,0.2-1.5,0.3c0.2-0.5,0.5-1,0.8-1.5c4.7-6.1,6.7-12.7,5-20.4
					c-2.2-10.5-8.7-18.3-14.8-26.6c-4.2-5.5-7.6-11.5-10.3-17.8c-2-4.8,0.3-9.9,3.5-13.9c3.3-4,7.4-7.6,11.1-11.3
					c0.2-0.2,0.8-0.2,1.2-0.3c-0.1,0.4,0,1-0.2,1.3c-4.2,5.7-8.2,11.6-6.5,19.1c1,4.6,2.9,9.1,5.5,13c4.6,6.8,10.4,12.7,15,19.4
					C131.6,63.8,134,69.9,134,76.6z"/>
				<g>
					<text transform="matrix(1 0 0 1 295.1848 206.6771)" class="st5 st2 st3">+</text>
				</g>
				<path class="st1" d="M167.7,142.6c0,0-3.3,74.3-37.7,81.3s-48.7-7.3-48.7-7.3L167.7,142.6z"/>
				<path class="st1" d="M56.7,181.9c0,0,9.3,48.5,59,43.9v-30.4L84,191.6c0,0-15.4-5.8-17.2-7.3C65,182.7,56.7,181.9,56.7,181.9z"
					/>
			</g>
		</g>
	</g>
	<text transform="matrix(1 0 0 1 475.9953 143.9799)"><tspan x="0" y="0" class="st0 st6 st7">Coffee </tspan><tspan x="0" y="88.1" class="st8 st6 st9">Plus-Plus</tspan></text>
	<text transform="matrix(1 0 0 1 482.2453 271.8685)" class="st0 st10 st11">“Increment your Productivity”</text>
</g>
</svg>
