<svg xmlns="http://www.w3.org/2000/svg" viewBox="0 0 442.85 265.94"><defs><style>.cls-1,.cls-3{fill:#783819;}.cls-2{fill:#fff;}.cls-3{isolation:isolate;}.cls-3,.cls-6{font-size:178.4px;font-family:ClarendonBT-Bold, Clarendon BT;font-weight:700;}.cls-4{fill:#d28729;}.cls-5,.cls-6{fill:#cb9866;}</style></defs><title>SVG_LOGO_PLAINAsset 8</title><g id="Layer_2" data-name="Layer 2"><g id="Layer_1-2" data-name="Layer 1"><g id="logo"><g id="Layer_1-2-2" data-name="Layer 1-2"><path class="cls-1" d="M201,204a105.15,105.15,0,1,1-2.12-90.86L156.61,131l-21.5,53.81Z"/><path class="cls-2" d="M163.76,161.21a92.9,92.9,0,0,1-14.53,33.11,4.41,4.41,0,0,1-3.09,1.54q-38.61.12-77.29,0A4.11,4.11,0,0,1,66,194.42a90.82,90.82,0,0,1-5.47-8.8,4,4,0,0,0-4-2.38c-9.66-.15-17.13-4.43-22.22-12.6-6.08-9.76-1.62-20.56,9.35-23,1.73-.38,4.32-.21,5-1.25.77-1.3,0-3.59-.15-5.45-.33-3.86-.33-3.86,3.49-3.86H166.71A106.23,106.23,0,0,1,163.76,161.21ZM52.89,166.47c-.94-3.51-1.78-7.05-2.46-10.61-.31-1.66-1-2.08-2.58-1.82-7.37,1.21-10.48,8.09-6.27,14.27,3.3,4.84,8.17,7,14.28,7.86-1.07-3.49-2.12-6.57-3-9.7Z"/><ellipse class="cls-2" cx="107.65" cy="137.03" rx="59.05" ry="26.86"/><ellipse class="cls-1" cx="107.82" cy="132.04" rx="43.27" ry="14.76"/><text class="cls-3" transform="translate(178.72 201.15)">+</text><path class="cls-4" d="M93.36,10.48a27.1,27.1,0,0,0-4.24,3.44c-3.63,4.52-7.72,8.87-10.41,13.9-3.76,7,.66,13,4.36,18.57,4,6,8.91,11.38,12.61,17.52,3.18,5.29,6.11,11.06,7.51,17a22.07,22.07,0,0,1-5.41,20.42c-.18.2-.11.63-.16,1,.2,0,.45.12.6,0q2.85-1.38,5.68-2.81c6.57-3.28,11.25-12,10.29-19.3-1.26-9.59-6.42-17.21-12.07-24.72A166.06,166.06,0,0,1,89.09,36c-4.63-8.34-1.74-16.06,3.78-23.07a8.94,8.94,0,0,0,1-2ZM133,71.1c.06-6.74-2.4-12.83-6-18.18-4.59-6.78-10.4-12.71-15-19.48a39.32,39.32,0,0,1-5.45-13c-1.73-7.44,2.32-13.39,6.5-19.09.24-.32.17-.87.24-1.32-.39.1-.92.05-1.16.3-3.75,3.7-7.72,7.22-11.12,11.26s-5.49,9.1-3.54,13.9a83.69,83.69,0,0,0,10.3,17.79c6.13,8.23,12.59,16.08,14.82,26.5,1.66,7.72-.29,14.33-5,20.39a9.13,9.13,0,0,0-.77,1.49,8.88,8.88,0,0,0,1.54-.28C127,88.22,133,79.94,133,71.1Z"/><path class="cls-5" d="M93.36,10.48c.23.18.51.35.5.39a9.39,9.39,0,0,1-1,2c-5.53,7-8.38,14.73-3.78,23.07a165.65,165.65,0,0,0,13,19.55C107.78,63,113,70.65,114.21,80.22c1,7.26-3.72,16-10.3,19.31-1.88.94-3.77,1.89-5.67,2.8-.16.08-.4,0-.61,0,.05-.33,0-.77.17-1a22,22,0,0,0,5.4-20.41c-1.39-5.94-4.33-11.71-7.5-17C92,57.74,87.06,52.39,83.09,46.4c-3.7-5.56-8.12-11.59-4.37-18.54,2.7-5.05,6.78-9.39,10.42-13.9C90.23,12.54,91.94,11.64,93.36,10.48Z"/><path class="cls-5" d="M133,71.1c0,8.88-6,17.16-14.67,20.37a9,9,0,0,1-1.55.28,8.46,8.46,0,0,1,.78-1.49c4.71-6.06,6.65-12.67,5-20.39-2.21-10.46-8.67-18.3-14.8-26.57A83.07,83.07,0,0,1,97.47,25.45c-2-4.77.26-9.94,3.53-13.9S108.37,4,112.12.29c.24-.24.78-.2,1.17-.29-.08.45,0,1-.25,1.32C108.87,7,104.82,13,106.55,20.4a39.44,39.44,0,0,0,5.46,13c4.58,6.76,10.39,12.7,15,19.45C130.62,58.23,133.08,64.32,133,71.1Z"/><text class="cls-6" transform="translate(294.24 201.15)">+</text><path class="cls-2" d="M166.71,137S163.46,211.3,129,218.38s-48.73-7.25-48.73-7.25Z"/><path class="cls-2" d="M55.76,176.4s9.33,48.49,59,43.94V190L83,186s-15.38-5.79-17.16-7.34S55.76,176.4,55.76,176.4Z"/></g></g></g></g></svg>