<?xml version="1.0" encoding="utf-8"?>
<!-- Generator: Adobe Illustrator 24.3.0, SVG Export Plug-In . SVG Version: 6.00 Build 0)  -->
<svg version="1.1" id="Layer_1" xmlns="http://www.w3.org/2000/svg" xmlns:xlink="http://www.w3.org/1999/xlink" x="0px" y="0px"
	 viewBox="0 0 16 16" style="enable-background:new 0 0 16 16;" xml:space="preserve">
<style type="text/css">
	.st0{fill:#773718;}
</style>
<g id="Layer_2">
	<path class="st0" d="M14.3,5.9c-0.1-0.9-0.7-1.6-1.6-1.6c-0.5,0-1,0-1.4,0c-1,0-2.1,0-3.1,0C6.8,4.4,5.4,4.3,4,4.6
		C3.8,4.4,3.5,4.3,3.2,4.4C2.3,4.4,1.8,5,1.7,5.9c0,0.3-0.1,0.6-0.1,0.9c0,0.3,0.1,0.5,0.2,0.7c-0.7,1.4-0.8,3.2-0.1,4.7
		c0,0.6,0,1.2,0,1.8c0,0.4,0.2,0.8,0.4,1.1c0.3,0.3,0.7,0.5,1.1,0.4c0.2,0,0.3,0,0.5-0.1c0.2,0.1,0.5,0.2,0.7,0.2c2,0,4,0,6.1,0
		c1.1,0,2.7,0.2,3.4-0.8c0.3-0.4,0.3-0.9,0.3-1.4c0-0.5,0-1.1,0-1.6c0-1,0-2,0-3C14.3,7.8,14.3,6.8,14.3,5.9z"/>
</g>
<path class="st0" d="M8,1c1.4,0,2.5,1.1,2.5,2.5V4h-5V3.5C5.5,2.1,6.6,1,8,1z M11.5,4V3.5C11.5,1.6,9.9,0,8,0S4.5,1.6,4.5,3.5V4H1
	v10c0,1.1,0.9,2,2,2h10c1.1,0,2-0.9,2-2V4H11.5z M2,5h12v9c0,0.6-0.4,1-1,1H3c-0.6,0-1-0.4-1-1V5z"/>
</svg>
