<?xml version="1.0" encoding="utf-8"?>
<!-- Generator: Adobe Illustrator 23.0.0, SVG Export Plug-In . SVG Version: 6.00 Build 0)  -->
<svg version="1.1" id="Layer_1" xmlns="http://www.w3.org/2000/svg" xmlns:xlink="http://www.w3.org/1999/xlink" x="0px" y="0px"
	 viewBox="0 0 15 15" style="enable-background:new 0 0 15 15;" xml:space="preserve">
<style type="text/css">
	.st0{fill:#333333;}
</style>
<title>Asset 2</title>
<g>
	<g id="Layer_1-2">
		<path class="st0" d="M0,0.5C0,0.2,0.2,0,0.4,0c0,0,0,0,0.1,0H2c0.2,0,0.4,0.2,0.5,0.4L2.9,2h11.6C14.8,2,15,2.2,15,2.4
			c0,0,0,0,0,0.1v0.1l-1.5,8c0,0.2-0.3,0.4-0.5,0.4H4c-0.2,0-0.4-0.2-0.5-0.4L2,2.6L1.6,1H0.5C0.2,1,0,0.8,0,0.5L0,0.5z M5,11
			c-1.1,0-2,0.9-2,2s0.9,2,2,2s2-0.9,2-2S6.1,11,5,11z M12,11c-1.1,0-2,0.9-2,2s0.9,2,2,2s2-0.9,2-2S13.1,11,12,11z M5,12
			c0.6,0,1,0.4,1,1s-0.4,1-1,1s-1-0.4-1-1S4.4,12,5,12z M12,12c0.6,0,1,0.4,1,1s-0.4,1-1,1s-1-0.4-1-1c0-0.5,0.4-1,0.9-1H12z"/>
	</g>
</g>
</svg>
